<svg version="1.1" xmlns="http://www.w3.org/2000/svg" viewBox="0 0 266.093913351222 49.29454151413529" width="266.093913351222" height="49.29454151413529">
  <!-- svg-source:excalidraw -->
  
  <defs>
    <style class="style-fonts">
      @font-face {
        font-family: "Virgil";
        src: url("https://excalidraw.com/Virgil.woff2");
      }
      @font-face {
        font-family: "Cascadia";
        src: url("https://excalidraw.com/Cascadia.woff2");
      }
    </style>
    
  </defs>
  <g transform="translate(22.26420514019901 86.18683097874191) rotate(25.26555881794284 100.15926160626418 -51.182706371483164)" stroke="none"><path fill="#1e1e1e" d="M -1.28,-1.02 Q -1.28,-1.02 -0.31,-2.33 0.65,-3.63 1.35,-4.88 2.06,-6.13 5.03,-10.35 7.99,-14.57 14.57,-20.90 21.14,-27.23 27.61,-32.80 34.08,-38.37 44.24,-45.57 54.39,-52.78 65.83,-59.90 77.27,-67.02 92.84,-74.39 108.42,-81.75 122.96,-86.41 137.50,-91.07 149.40,-93.81 161.31,-96.55 169.78,-98.47 178.24,-100.39 184.29,-101.34 190.34,-102.29 193.16,-102.68 195.98,-103.08 198.05,-103.39 200.12,-103.69 200.34,-103.68 200.56,-103.68 200.76,-103.60 200.97,-103.53 201.14,-103.40 201.31,-103.26 201.42,-103.08 201.54,-102.90 201.59,-102.69 201.65,-102.48 201.63,-102.26 201.62,-102.05 201.53,-101.85 201.45,-101.65 201.30,-101.48 201.16,-101.32 200.97,-101.21 200.78,-101.11 200.57,-101.06 200.36,-101.02 200.14,-101.05 199.93,-101.08 199.73,-101.17 199.54,-101.27 199.38,-101.42 199.23,-101.57 199.13,-101.77 199.04,-101.96 199.00,-102.17 198.97,-102.39 199.01,-102.60 199.05,-102.81 199.16,-103.00 199.26,-103.19 199.42,-103.34 199.58,-103.48 199.78,-103.57 199.98,-103.66 200.20,-103.68 200.41,-103.70 200.62,-103.65 200.84,-103.59 201.02,-103.48 201.20,-103.36 201.34,-103.20 201.48,-103.03 201.55,-102.82 201.63,-102.62 201.64,-102.40 201.64,-102.19 201.58,-101.98 201.52,-101.77 201.39,-101.60 201.27,-101.42 201.09,-101.29 200.92,-101.16 200.71,-101.10 200.50,-101.03 200.50,-101.03 200.50,-101.03 198.43,-100.74 196.35,-100.45 193.56,-100.05 190.76,-99.64 184.80,-98.70 178.84,-97.77 170.38,-95.84 161.92,-93.91 150.13,-91.18 138.34,-88.46 123.97,-83.84 109.61,-79.22 94.20,-71.91 78.78,-64.60 67.44,-57.49 56.10,-50.39 46.09,-43.22 36.09,-36.05 29.74,-30.48 23.39,-24.91 17.11,-18.77 10.83,-12.62 8.04,-8.38 5.24,-4.14 4.32,-2.79 3.40,-1.43 2.34,-0.20 1.28,1.02 1.14,1.16 1.00,1.30 0.83,1.40 0.66,1.51 0.47,1.56 0.28,1.62 0.08,1.63 -0.11,1.64 -0.31,1.60 -0.50,1.56 -0.68,1.48 -0.86,1.40 -1.02,1.27 -1.17,1.15 -1.29,0.99 -1.41,0.83 -1.49,0.65 -1.57,0.47 -1.61,0.27 -1.64,0.08 -1.63,-0.11 -1.61,-0.31 -1.55,-0.50 -1.49,-0.69 -1.39,-0.86 -1.28,-1.02 -1.28,-1.02 L -1.28,-1.02 Z"/></g><g transform="translate(221.05699953971362 26.16231180788145) rotate(25.26555881794284 16.766748638933905 10.368910342498793)" stroke="none"><path fill="#1e1e1e" d="M 0.46,-1.75 Q 0.46,-1.75 2.36,-1.21 4.25,-0.68 5.95,-0.49 7.66,-0.31 11.04,-0.03 14.43,0.23 19.07,0.63 23.71,1.02 26.29,1.20 28.88,1.38 30.25,1.34 31.61,1.30 31.81,1.34 32.02,1.37 32.20,1.45 32.39,1.54 32.55,1.66 32.71,1.79 32.84,1.95 32.96,2.11 33.05,2.29 33.13,2.48 33.17,2.68 33.21,2.88 33.20,3.09 33.19,3.29 33.13,3.49 33.07,3.68 32.96,3.86 32.86,4.03 32.71,4.18 32.57,4.32 32.39,4.43 32.22,4.53 32.02,4.60 31.83,4.66 31.63,4.67 31.42,4.68 28.38,6.74 25.35,8.79 22.20,10.56 19.04,12.33 15.43,14.46 11.82,16.59 9.24,18.01 6.66,19.43 3.90,20.83 1.13,22.23 0.87,22.30 0.61,22.38 0.35,22.36 0.08,22.35 -0.16,22.25 -0.41,22.15 -0.61,21.97 -0.81,21.80 -0.95,21.57 -1.09,21.34 -1.15,21.08 -1.20,20.82 -1.17,20.55 -1.15,20.29 -1.03,20.05 -0.92,19.80 -0.74,19.61 -0.55,19.42 -0.32,19.29 -0.08,19.17 0.18,19.12 0.44,19.08 0.70,19.12 0.97,19.17 1.20,19.29 1.44,19.42 1.62,19.61 1.81,19.81 1.92,20.05 2.03,20.29 2.06,20.56 2.09,20.83 2.03,21.09 1.97,21.35 1.83,21.58 1.69,21.80 1.49,21.98 1.29,22.15 1.04,22.25 0.79,22.35 0.52,22.36 0.25,22.38 0.00,22.30 -0.25,22.23 -0.47,22.08 -0.69,21.93 -0.85,21.72 -1.02,21.50 -1.10,21.25 -1.18,21.00 -1.18,20.73 -1.18,20.46 -1.10,20.21 -1.01,19.96 -0.85,19.74 -0.69,19.53 -0.47,19.38 -0.24,19.23 -0.24,19.23 -0.25,19.23 2.51,18.09 5.27,16.94 7.79,15.51 10.31,14.07 13.91,11.88 17.52,9.69 20.60,7.86 23.68,6.04 26.16,4.47 28.64,2.91 30.13,2.10 31.61,1.30 31.81,1.33 32.02,1.37 32.20,1.45 32.39,1.54 32.55,1.66 32.71,1.79 32.84,1.95 32.96,2.11 33.05,2.29 33.13,2.48 33.17,2.68 33.21,2.88 33.20,3.09 33.19,3.29 33.13,3.49 33.07,3.68 32.96,3.86 32.86,4.03 32.71,4.18 32.57,4.32 32.39,4.43 32.22,4.53 32.02,4.60 31.83,4.66 31.63,4.67 31.42,4.68 30.07,4.52 28.71,4.35 26.09,4.24 23.48,4.12 18.85,3.82 14.22,3.52 10.73,3.36 7.24,3.20 5.30,2.95 3.35,2.71 1.44,2.23 -0.46,1.75 -0.67,1.67 -0.87,1.58 -1.05,1.46 -1.22,1.33 -1.36,1.16 -1.51,1.00 -1.60,0.80 -1.70,0.61 -1.75,0.39 -1.80,0.18 -1.79,-0.03 -1.79,-0.25 -1.73,-0.46 -1.68,-0.67 -1.57,-0.86 -1.47,-1.05 -1.32,-1.21 -1.17,-1.38 -0.99,-1.50 -0.81,-1.62 -0.60,-1.69 -0.40,-1.76 -0.18,-1.79 0.03,-1.81 0.25,-1.78 0.46,-1.75 0.46,-1.75 L 0.46,-1.75 Z"/></g></svg>