<svg version="1.1" xmlns="http://www.w3.org/2000/svg" viewBox="0 0 815.3111806869507 602.8895355662672" width="815.3111806869507" height="602.8895355662672">
  <!-- svg-source:excalidraw -->

  <defs>
    <style class="style-fonts">
      @font-face {
        font-family: "Virgil";
        src: url("https://excalidraw.com/Virgil.woff2");
      }
      @font-face {
        font-family: "Cascadia";
        src: url("https://excalidraw.com/Cascadia.woff2");
      }
    </style>

  </defs>
  <g stroke-linecap="round"><g transform="translate(70.1701567605138 588.9292855952075) rotate(0 332.67542679756883 -285.3089666963416)"><path d="M-1.52 -0.54 C180.75 5.69, 360.03 5.05, 666.87 -0.01 M0.31 0.38 C166.77 2.04, 335.03 2.34, 666.68 0.69 M664.95 0.27 C564.82 -174.98, 463.04 -350.77, 333.58 -573.19 M666.57 0 C560.54 -177.96, 456.66 -357.05, 331.86 -574.58 M331.3 -572.93 C231.45 -393.48, 127.25 -216.9, 1.31 -1.53 M331.77 -574.13 C247.69 -430.74, 164.65 -289.23, 0.64 -0.25" stroke="#1e1e1e" stroke-width="1" fill="none"></path></g></g><mask></mask><g stroke-linecap="round"><g transform="translate(223.1701567605138 322.9292855952075) rotate(0 179.84778834249767 -1.2645994617202518)"><path d="M-0.33 0.33 C106.99 -2.1, 212 1.34, 360.03 -2.05 M1.18 -0.39 C119.13 -3.23, 237.31 -3.83, 358.08 -1.07" stroke="#1e1e1e" stroke-width="1" fill="none"></path></g></g><mask></mask><g mask="url(#mask-olfyQuSsEM5l12HQmH_a6)" stroke-linecap="round"><g transform="translate(11.170156760513805 585.9292855952075) rotate(0 165.68214186486455 -287.71031445023374)"><path d="M-1.17 -1.44 C109.23 -193.25, 222.89 -383.25, 332.53 -575.93 M-0.52 0.51 C75.42 -128.65, 150.46 -257.02, 332.24 -575.52" stroke="#1e1e1e" stroke-width="1" fill="none"></path></g><g transform="translate(11.170156760513805 585.9292855952075) rotate(0 165.68214186486455 -287.71031445023374)"><path d="M324.21 -549.55 C324.82 -559.28, 332.6 -562.51, 332.05 -575.09 M325.83 -544.69 C327.88 -552.79, 331.16 -559.06, 331.31 -574.07" stroke="#1e1e1e" stroke-width="1" fill="none"></path></g><g transform="translate(11.170156760513805 585.9292855952075) rotate(0 165.68214186486455 -287.71031445023374)"><path d="M306.4 -559.75 C312.99 -565.96, 326.72 -565.78, 332.05 -575.09 M308.02 -554.88 C313.98 -560.72, 321.23 -564.72, 331.31 -574.07" stroke="#1e1e1e" stroke-width="1" fill="none"></path></g></g><mask id="mask-olfyQuSsEM5l12HQmH_a6"><rect x="0" y="0" fill="#fff" width="443.7816254731388" height="1262.0292485855798"></rect><rect x="137.82187652942395" y="275.3793041000213" fill="#000" width="79.30802917480469" height="45" opacity="1"></rect></mask><g transform="translate(137.8218765294239 275.37930410002116) rotate(0 39.03042209595441 22.839667044952478)"><text x="39.654014587402344" y="0" font-family="Virgil, Segoe UI Emoji" font-size="36px" fill="#1e1e1e" text-anchor="middle" style="white-space: pre;" direction="ltr" dominant-baseline="text-before-edge">Time</text></g><g mask="url(#mask-m1QHa53P9QToE5tC56jsW)" stroke-linecap="round"><g transform="translate(804.1701567605138 586.9292855952075) rotate(0 -164.86690525453656 -286.50209668104605)"><path d="M1.14 -0.03 C-67.01 -123.84, -141.18 -249.72, -330.73 -573.05 M-0.76 0.04 C-92.08 -156.82, -181.74 -312.24, -330.87 -572.41" stroke="#1e1e1e" stroke-width="1" fill="none"></path></g><g transform="translate(804.1701567605138 586.9292855952075) rotate(0 -164.86690525453656 -286.50209668104605)"><path d="M-305.09 -553.16 C-309.34 -553.79, -320.68 -562.6, -331.56 -574.1 M-309.83 -552.96 C-313.65 -557.12, -320.35 -563.52, -331.91 -572.51" stroke="#1e1e1e" stroke-width="1" fill="none"></path></g><g transform="translate(804.1701567605138 586.9292855952075) rotate(0 -164.86690525453656 -286.50209668104605)"><path d="M-322.89 -542.94 C-323.13 -545.62, -330.62 -556.64, -331.56 -574.1 M-327.63 -542.75 C-326.76 -549.34, -328.64 -558.5, -331.91 -572.51" stroke="#1e1e1e" stroke-width="1" fill="none"></path></g></g><mask id="mask-m1QHa53P9QToE5tC56jsW"><rect x="0" y="0" fill="#fff" width="1234.6297016844924" height="1259.3020072496279"></rect><rect x="581.430366903505" y="278.24292476799747" fill="#000" width="115.02003479003906" height="45" opacity="1"></rect></mask><g transform="translate(581.4303669035052 278.24292476799747) rotate(0 57.8728846024722 22.184264146164082)"><text x="57.51001739501953" y="0" font-family="Virgil, Segoe UI Emoji" font-size="36px" fill="#1e1e1e" text-anchor="middle" style="white-space: pre;" direction="ltr" dominant-baseline="text-before-edge">Effort</text></g><g transform="translate(316.1701567605138 183.9292855952075) rotate(0 84.34687805175781 15.5)"><text x="0" y="0" font-family="Virgil, Segoe UI Emoji" font-size="24.800000000000022px" fill="#1e1e1e" text-anchor="start" style="white-space: pre;" direction="ltr" dominant-baseline="text-before-edge">Reproducibility</text></g><g transform="translate(316.823278708756 400.4292855952075) rotate(0 84.34687805175781 15.5)"><text x="0" y="0" font-family="Virgil, Segoe UI Emoji" font-size="24.800000000000022px" fill="#1e1e1e" text-anchor="start" style="white-space: pre;" direction="ltr" dominant-baseline="text-before-edge">Reproducibility</text></g><g transform="translate(296.1701567605138 439.9292855952075) rotate(0 102.7952651977539 28)"><text x="0" y="0" font-family="Virgil, Segoe UI Emoji" font-size="22.40000000000001px" fill="#1e1e1e" text-anchor="start" style="white-space: pre;" direction="ltr" dominant-baseline="text-before-edge">- Same developer</text><text x="0" y="28.00000000000001" font-family="Virgil, Segoe UI Emoji" font-size="22.40000000000001px" fill="#1e1e1e" text-anchor="start" style="white-space: pre;" direction="ltr" dominant-baseline="text-before-edge">- Same sourcecode</text></g><g transform="translate(297.3317276698018 221.9292855952075) rotate(0 102.87364196777344 28)"><text x="0" y="0" font-family="Virgil, Segoe UI Emoji" font-size="22.40000000000001px" fill="#1e1e1e" text-anchor="start" style="white-space: pre;" direction="ltr" dominant-baseline="text-before-edge">- Other developers</text><text x="0" y="28.00000000000001" font-family="Virgil, Segoe UI Emoji" font-size="22.40000000000001px" fill="#1e1e1e" text-anchor="start" style="white-space: pre;" direction="ltr" dominant-baseline="text-before-edge">- Same sourcecode</text></g></svg>
