<?xml version="1.0" encoding="UTF-8"?>
<svg id="Ebene_1" xmlns="http://www.w3.org/2000/svg" viewBox="0 0 100 50"><defs><style>.cls-1{fill:#a90835;}.cls-2{fill:#1a1a18;}</style></defs><g><path class="cls-2" d="m43.501,29.718h-3.82l3.037-14.326h3.82l-3.037,14.326Z"/><path class="cls-2" d="m45.478,29.718l3.037-14.326h7.201c3.553,0,4.584,1.509,3.782,5.253-.86,4.03-2.044,5.406-6.036,5.406h-3.381l-.783,3.667h-3.82Zm7.927-6.991c1.509-.057,1.757-.229,2.158-2.082.306-1.471.172-1.929-1.318-1.929h-2.617l-.84,4.011h2.617Z"/><path class="cls-2" d="m72.062,24.293l-.076.42c-.344,1.566-.649,2.98-2.197,4.069-1.509,1.07-3.094,1.05-4.756,1.05-3.897,0-6.705-.191-5.597-5.425l.783-3.705c1.012-4.737,3.706-5.425,7.908-5.425,3.935,0,5.673.401,4.833,4.699l-.115.554h-3.935l.115-.554c.153-1.28-.726-1.375-2.025-1.375-2.177,0-2.54.669-2.961,2.712l-.478,2.235c-.459,2.139-.535,2.961,1.757,2.961,1.585,0,2.369-.115,2.732-1.795l.076-.42h3.935Z"/></g><path class="cls-1" d="m65.577,4.065c4.289,1.477,6.459,2.583,7.318,3.355.57.511.549.703-.284.96-1.917.591-6.149.212-7.108-.547C57.699,1.664,48.006.12,41.33,4.97c-8.612,6.257-8.662,20.535-.472,31.808,3.684,5.071,9.833,8.744,15.995,10.952,1.396.501.264.912-1.724.444-1.144-.27-2.305-.607-3.496-1.017-17.064-5.876-28.131-20.315-24.079-32.083C31.61,3.292,48.535-1.803,65.577,4.065h0Z"/></svg>