<svg version="1.1" viewBox="0.0 0.0 884.0 622.0" fill="none" stroke="none" stroke-linecap="square" stroke-miterlimit="10" width="884" height="622" xmlns:xlink="http://www.w3.org/1999/xlink" xmlns="http://www.w3.org/2000/svg"><path fill="#ffffff" d="M0 0L884.0 0L884.0 622.0L0 622.0L0 0Z" fill-rule="nonzero"/><path stroke="#333333" stroke-width="1.0" stroke-linecap="butt" d="M72.5 516.5L804.5 516.5" fill-rule="nonzero"/><path stroke="#cccccc" stroke-width="1.0" stroke-linecap="butt" d="M72.5 408.5L804.5 408.5" fill-rule="nonzero"/><path stroke="#cccccc" stroke-width="1.0" stroke-linecap="butt" d="M72.5 299.5L804.5 299.5" fill-rule="nonzero"/><path stroke="#cccccc" stroke-width="1.0" stroke-linecap="butt" d="M72.5 191.5L804.5 191.5" fill-rule="nonzero"/><path stroke="#cccccc" stroke-width="1.0" stroke-linecap="butt" d="M72.5 82.5L804.5 82.5" fill-rule="nonzero"/><clipPath id="id_0"><path d="M72.1 82.833336L804.9 82.833336L804.9 516.9L72.1 516.9L72.1 82.833336Z" clip-rule="nonzero"/></clipPath><path stroke="#000000" stroke-width="2.0" stroke-linecap="butt" stroke-opacity="0.0" clip-path="url(#id_0)" d="M149.0 517.0L113.0 517.0L113.0 276.0C113.0 274.89542 113.89543 274.0 115.0 274.0L147.0 274.0C148.10457 274.0 149.0 274.89542 149.0 276.0Z" fill-rule="nonzero"/><path fill="#4285f4" clip-path="url(#id_0)" d="M149.0 517.0L113.0 517.0L113.0 276.0C113.0 274.89542 113.89543 274.0 115.0 274.0L147.0 274.0C148.10457 274.0 149.0 274.89542 149.0 276.0Z" fill-rule="nonzero"/><path stroke="#000000" stroke-width="2.0" stroke-linecap="butt" stroke-opacity="0.0" clip-path="url(#id_0)" d="M264.0 517.0L228.0 517.0L228.0 245.0C228.0 243.89543 228.89543 243.0 230.0 243.0L262.0 243.0C263.10458 243.0 264.0 243.89543 264.0 245.0Z" fill-rule="nonzero"/><path fill="#4285f4" clip-path="url(#id_0)" d="M264.0 517.0L228.0 517.0L228.0 245.0C228.0 243.89543 228.89543 243.0 230.0 243.0L262.0 243.0C263.10458 243.0 264.0 243.89543 264.0 245.0Z" fill-rule="nonzero"/><path stroke="#000000" stroke-width="2.0" stroke-linecap="butt" stroke-opacity="0.0" clip-path="url(#id_0)" d="M380.0 517.0L344.0 517.0L344.0 216.0C344.0 214.89543 344.89542 214.0 346.0 214.0L378.0 214.0C379.10458 214.0 380.0 214.89543 380.0 216.0Z" fill-rule="nonzero"/><path fill="#4285f4" clip-path="url(#id_0)" d="M380.0 517.0L344.0 517.0L344.0 216.0C344.0 214.89543 344.89542 214.0 346.0 214.0L378.0 214.0C379.10458 214.0 380.0 214.89543 380.0 216.0Z" fill-rule="nonzero"/><path stroke="#000000" stroke-width="2.0" stroke-linecap="butt" stroke-opacity="0.0" clip-path="url(#id_0)" d="M495.0 517.0L459.0 517.0L459.0 184.0C459.0 182.89543 459.89542 182.0 461.0 182.0L493.0 182.0C494.10458 182.0 495.0 182.89543 495.0 184.0Z" fill-rule="nonzero"/><path fill="#4285f4" clip-path="url(#id_0)" d="M495.0 517.0L459.0 517.0L459.0 184.0C459.0 182.89543 459.89542 182.0 461.0 182.0L493.0 182.0C494.10458 182.0 495.0 182.89543 495.0 184.0Z" fill-rule="nonzero"/><path stroke="#000000" stroke-width="2.0" stroke-linecap="butt" stroke-opacity="0.0" clip-path="url(#id_0)" d="M611.0 517.0L575.0 517.0L575.0 149.0C575.0 147.89543 575.89545 147.0 577.0 147.0L609.0 147.0C610.10455 147.0 611.0 147.89543 611.0 149.0Z" fill-rule="nonzero"/><path fill="#4285f4" clip-path="url(#id_0)" d="M611.0 517.0L575.0 517.0L575.0 149.0C575.0 147.89543 575.89545 147.0 577.0 147.0L609.0 147.0C610.10455 147.0 611.0 147.89543 611.0 149.0Z" fill-rule="nonzero"/><path stroke="#000000" stroke-width="2.0" stroke-linecap="butt" stroke-opacity="0.0" clip-path="url(#id_0)" d="M726.0 517.0L690.0 517.0L690.0 117.0C690.0 115.89543 690.89545 115.0 692.0 115.0L724.0 115.0C725.10455 115.0 726.0 115.89543 726.0 117.0Z" fill-rule="nonzero"/><path fill="#4285f4" clip-path="url(#id_0)" d="M726.0 517.0L690.0 517.0L690.0 117.0C690.0 115.89543 690.89545 115.0 692.0 115.0L724.0 115.0C725.10455 115.0 726.0 115.89543 726.0 117.0Z" fill-rule="nonzero"/><path stroke="#000000" stroke-width="2.0" stroke-linecap="butt" stroke-opacity="0.0" clip-path="url(#id_0)" d="M187.0 517.0L151.0 517.0L151.0 305.0C151.0 303.89542 151.89543 303.0 153.0 303.0L185.0 303.0C186.10457 303.0 187.0 303.89542 187.0 305.0Z" fill-rule="nonzero"/><path fill="#ea4335" clip-path="url(#id_0)" d="M187.0 517.0L151.0 517.0L151.0 305.0C151.0 303.89542 151.89543 303.0 153.0 303.0L185.0 303.0C186.10457 303.0 187.0 303.89542 187.0 305.0Z" fill-rule="nonzero"/><path stroke="#000000" stroke-width="2.0" stroke-linecap="butt" stroke-opacity="0.0" clip-path="url(#id_0)" d="M302.0 517.0L266.0 517.0L266.0 274.0C266.0 272.89542 266.89542 272.0 268.0 272.0L300.0 272.0C301.10458 272.0 302.0 272.89542 302.0 274.0Z" fill-rule="nonzero"/><path fill="#ea4335" clip-path="url(#id_0)" d="M302.0 517.0L266.0 517.0L266.0 274.0C266.0 272.89542 266.89542 272.0 268.0 272.0L300.0 272.0C301.10458 272.0 302.0 272.89542 302.0 274.0Z" fill-rule="nonzero"/><path stroke="#000000" stroke-width="2.0" stroke-linecap="butt" stroke-opacity="0.0" clip-path="url(#id_0)" d="M418.0 517.0L382.0 517.0L382.0 241.0C382.0 239.89543 382.89542 239.0 384.0 239.0L416.0 239.0C417.10458 239.0 418.0 239.89543 418.0 241.0Z" fill-rule="nonzero"/><path fill="#ea4335" clip-path="url(#id_0)" d="M418.0 517.0L382.0 517.0L382.0 241.0C382.0 239.89543 382.89542 239.0 384.0 239.0L416.0 239.0C417.10458 239.0 418.0 239.89543 418.0 241.0Z" fill-rule="nonzero"/><path stroke="#000000" stroke-width="2.0" stroke-linecap="butt" stroke-opacity="0.0" clip-path="url(#id_0)" d="M533.0 517.0L497.0 517.0L497.0 205.0C497.0 203.89543 497.89542 203.0 499.0 203.0L531.0 203.0C532.10455 203.0 533.0 203.89543 533.0 205.0Z" fill-rule="nonzero"/><path fill="#ea4335" clip-path="url(#id_0)" d="M533.0 517.0L497.0 517.0L497.0 205.0C497.0 203.89543 497.89542 203.0 499.0 203.0L531.0 203.0C532.10455 203.0 533.0 203.89543 533.0 205.0Z" fill-rule="nonzero"/><path stroke="#000000" stroke-width="2.0" stroke-linecap="butt" stroke-opacity="0.0" clip-path="url(#id_0)" d="M649.0 517.0L613.0 517.0L613.0 163.0C613.0 161.89543 613.89545 161.0 615.0 161.0L647.0 161.0C648.10455 161.0 649.0 161.89543 649.0 163.0Z" fill-rule="nonzero"/><path fill="#ea4335" clip-path="url(#id_0)" d="M649.0 517.0L613.0 517.0L613.0 163.0C613.0 161.89543 613.89545 161.0 615.0 161.0L647.0 161.0C648.10455 161.0 649.0 161.89543 649.0 163.0Z" fill-rule="nonzero"/><path stroke="#000000" stroke-width="2.0" stroke-linecap="butt" stroke-opacity="0.0" clip-path="url(#id_0)" d="M764.0 517.0L728.0 517.0L728.0 128.0C728.0 126.89543 728.89545 126.0 730.0 126.0L762.0 126.0C763.10455 126.0 764.0 126.89543 764.0 128.0Z" fill-rule="nonzero"/><path fill="#ea4335" clip-path="url(#id_0)" d="M764.0 517.0L728.0 517.0L728.0 128.0C728.0 126.89543 728.89545 126.0 730.0 126.0L762.0 126.0C763.10455 126.0 764.0 126.89543 764.0 128.0Z" fill-rule="nonzero"/><path fill="#000000" d="M372.03125 585.9L372.03125 571.5875L373.96875 571.5875L381.48438 582.8219L381.48438 571.5875L383.29688 571.5875L383.29688 585.9L381.35938 585.9L373.84375 574.65L373.84375 585.9L372.03125 585.9ZM384.82812 573.60315L384.82812 571.5875L386.59375 571.5875L386.59375 573.60315L384.82812 573.60315ZM384.82812 585.9L384.82812 575.525L386.59375 575.525L386.59375 585.9L384.82812 585.9ZM387.64062 585.9L391.4375 580.5094L387.9375 575.525L390.125 575.525L391.71875 577.9625Q392.17188 578.65 392.4375 579.1188Q392.875 578.47815 393.23438 577.97815L394.98438 575.525L397.07812 575.525L393.5 580.41565L397.35938 585.9L395.20312 585.9L393.0625 582.6813L392.5 581.8063L389.78125 585.9L387.64062 585.9ZM397.46875 578.9313Q397.46875 575.3688 399.375 573.35315Q401.29688 571.3219 404.32812 571.3219Q406.3125 571.3219 407.89062 572.275Q409.48438 573.22815 410.3125 574.9313Q411.15625 576.6188 411.15625 578.7594Q411.15625 580.9313 410.28125 582.65Q409.40625 584.3688 407.78125 585.2594Q406.17188 586.15 404.3125 586.15Q402.29688 586.15 400.70312 585.1813Q399.10938 584.1969 398.28125 582.5094Q397.46875 580.8063 397.46875 578.9313ZM399.42188 578.9625Q399.42188 581.54065 400.8125 583.04065Q402.20312 584.525 404.29688 584.525Q406.4375 584.525 407.8125 583.025Q409.20312 581.5094 409.20312 578.7438Q409.20312 577.0094 408.60938 575.7125Q408.03125 574.4 406.89062 573.6813Q405.75 572.9625 404.32812 572.9625Q402.32812 572.9625 400.875 574.35315Q399.42188 575.72815 399.42188 578.9625ZM413.40625 581.3063L415.1875 581.15Q415.3125 582.2125 415.76562 582.9Q416.23438 583.5875 417.20312 584.025Q418.1875 584.4469 419.42188 584.4469Q420.5 584.4469 421.32812 584.1344Q422.15625 583.8063 422.5625 583.2438Q422.96875 582.6813 422.96875 582.0094Q422.96875 581.3375 422.57812 580.8375Q422.1875 580.3375 421.29688 579.9938Q420.71875 579.7594 418.73438 579.29065Q416.76562 578.8219 415.98438 578.4Q414.95312 577.8688 414.45312 577.0719Q413.95312 576.275 413.95312 575.29065Q413.95312 574.1969 414.5625 573.2594Q415.17188 572.3219 416.35938 571.8375Q417.54688 571.3375 418.98438 571.3375Q420.57812 571.3375 421.79688 571.85315Q423.01562 572.3688 423.65625 573.3688Q424.3125 574.35315 424.35938 575.6188L422.54688 575.7594Q422.40625 574.4 421.5625 573.7125Q420.71875 573.0094 419.0625 573.0094Q417.34375 573.0094 416.54688 573.65Q415.76562 574.275 415.76562 575.15Q415.76562 575.9313 416.32812 576.4313Q416.875 576.9313 419.1875 577.4469Q421.5 577.9625 422.35938 578.35315Q423.60938 578.9313 424.20312 579.8219Q424.79688 580.6969 424.79688 581.85315Q424.79688 582.9938 424.14062 584.0094Q423.48438 585.025 422.25 585.5875Q421.03125 586.15 419.5 586.15Q417.5625 586.15 416.25 585.5875Q414.9375 585.0094 414.1875 583.8688Q413.4375 582.72815 413.40625 581.3063ZM432.79688 585.9L432.79688 575.525L434.375 575.525L434.375 577.10315Q434.98438 575.9938 435.5 575.65Q436.01562 575.29065 436.625 575.29065Q437.51562 575.29065 438.4375 575.85315L437.82812 577.4938Q437.1875 577.10315 436.54688 577.10315Q435.96875 577.10315 435.5 577.4625Q435.04688 577.8063 434.84375 578.41565Q434.5625 579.35315 434.5625 580.4625L434.5625 585.9L432.79688 585.9ZM446.92188 582.5563L448.73438 582.79065Q448.3125 584.3688 447.14062 585.2594Q445.98438 586.1344 444.17188 586.1344Q441.90625 586.1344 440.5625 584.7438Q439.23438 583.3375 439.23438 580.8063Q439.23438 578.1813 440.57812 576.7438Q441.92188 575.29065 444.07812 575.29065Q446.15625 575.29065 447.46875 576.7125Q448.79688 578.1188 448.79688 580.6969Q448.79688 580.85315 448.78125 581.16565L441.04688 581.16565Q441.14062 582.8688 442.01562 583.775Q442.89062 584.6813 444.1875 584.6813Q445.15625 584.6813 445.82812 584.1813Q446.51562 583.66565 446.92188 582.5563ZM441.14062 579.7125L446.9375 579.7125Q446.82812 578.41565 446.28125 577.7594Q445.4375 576.7438 444.09375 576.7438Q442.89062 576.7438 442.0625 577.5563Q441.23438 578.35315 441.14062 579.7125ZM450.78125 585.9L450.78125 571.5875L452.53125 571.5875L452.53125 585.9L450.78125 585.9ZM461.92188 582.5563L463.73438 582.79065Q463.3125 584.3688 462.14062 585.2594Q460.98438 586.1344 459.17188 586.1344Q456.90625 586.1344 455.5625 584.7438Q454.23438 583.3375 454.23438 580.8063Q454.23438 578.1813 455.57812 576.7438Q456.92188 575.29065 459.07812 575.29065Q461.15625 575.29065 462.46875 576.7125Q463.79688 578.1188 463.79688 580.6969Q463.79688 580.85315 463.78125 581.16565L456.04688 581.16565Q456.14062 582.8688 457.01562 583.775Q457.89062 584.6813 459.1875 584.6813Q460.15625 584.6813 460.82812 584.1813Q461.51562 583.66565 461.92188 582.5563ZM456.14062 579.7125L461.9375 579.7125Q461.82812 578.41565 461.28125 577.7594Q460.4375 576.7438 459.09375 576.7438Q457.89062 576.7438 457.0625 577.5563Q456.23438 578.35315 456.14062 579.7125ZM472.59375 584.6188Q471.60938 585.4469 470.70312 585.79065Q469.79688 586.1344 468.76562 586.1344Q467.0625 586.1344 466.14062 585.3063Q465.21875 584.4625 465.21875 583.16565Q465.21875 582.4 465.5625 581.775Q465.92188 581.15 466.48438 580.775Q467.04688 580.3844 467.75 580.1813Q468.26562 580.0563 469.3125 579.91565Q471.4375 579.66565 472.4375 579.3219Q472.45312 578.9625 472.45312 578.85315Q472.45312 577.79065 471.95312 577.3375Q471.28125 576.7438 469.95312 576.7438Q468.70312 576.7438 468.10938 577.1813Q467.53125 577.6188 467.25 578.72815L465.53125 578.4938Q465.76562 577.3844 466.29688 576.7125Q466.82812 576.025 467.84375 575.66565Q468.85938 575.29065 470.20312 575.29065Q471.53125 575.29065 472.35938 575.60315Q473.1875 575.91565 473.57812 576.4Q473.96875 576.8688 474.125 577.5875Q474.21875 578.04065 474.21875 579.2125L474.21875 581.5563Q474.21875 584.0094 474.32812 584.66565Q474.4375 585.3063 474.78125 585.9L472.9375 585.9Q472.67188 585.35315 472.59375 584.6188ZM472.4375 580.6969Q471.48438 581.0875 469.5625 581.35315Q468.48438 581.5094 468.03125 581.7125Q467.59375 581.9 467.34375 582.275Q467.09375 582.65 467.09375 583.1188Q467.09375 583.8219 467.625 584.29065Q468.15625 584.7594 469.1875 584.7594Q470.20312 584.7594 470.98438 584.3219Q471.78125 583.8688 472.15625 583.10315Q472.4375 582.4938 472.4375 581.3375L472.4375 580.6969ZM476.10938 582.8063L477.85938 582.525Q478.0 583.5719 478.67188 584.1344Q479.34375 584.6813 480.54688 584.6813Q481.75 584.6813 482.32812 584.1969Q482.92188 583.6969 482.92188 583.04065Q482.92188 582.4469 482.40625 582.10315Q482.04688 581.8688 480.60938 581.5094Q478.67188 581.0094 477.92188 580.66565Q477.1875 580.3063 476.79688 579.6813Q476.40625 579.04065 476.40625 578.275Q476.40625 577.5875 476.71875 576.9938Q477.04688 576.4 477.59375 576.0094Q478.0 575.7125 478.70312 575.5094Q479.42188 575.29065 480.23438 575.29065Q481.45312 575.29065 482.375 575.65Q483.29688 575.9938 483.73438 576.60315Q484.17188 577.1969 484.34375 578.1969L482.625 578.4313Q482.5 577.6344 481.9375 577.1969Q481.375 576.7438 480.35938 576.7438Q479.14062 576.7438 478.625 577.15Q478.10938 577.54065 478.10938 578.0719Q478.10938 578.41565 478.32812 578.6969Q478.53125 578.97815 479.0 579.16565Q479.26562 579.2594 480.54688 579.60315Q482.42188 580.10315 483.15625 580.4313Q483.89062 580.7438 484.3125 581.35315Q484.73438 581.9469 484.73438 582.85315Q484.73438 583.72815 484.21875 584.5094Q483.70312 585.29065 482.73438 585.7125Q481.76562 586.1344 480.54688 586.1344Q478.53125 586.1344 477.46875 585.29065Q476.40625 584.4469 476.10938 582.8063ZM493.92188 582.5563L495.73438 582.79065Q495.3125 584.3688 494.14062 585.2594Q492.98438 586.1344 491.17188 586.1344Q488.90625 586.1344 487.5625 584.7438Q486.23438 583.3375 486.23438 580.8063Q486.23438 578.1813 487.57812 576.7438Q488.92188 575.29065 491.07812 575.29065Q493.15625 575.29065 494.46875 576.7125Q495.79688 578.1188 495.79688 580.6969Q495.79688 580.85315 495.78125 581.16565L488.04688 581.16565Q488.14062 582.8688 489.01562 583.775Q489.89062 584.6813 491.1875 584.6813Q492.15625 584.6813 492.82812 584.1813Q493.51562 583.66565 493.92188 582.5563ZM488.14062 579.7125L493.9375 579.7125Q493.82812 578.41565 493.28125 577.7594Q492.4375 576.7438 491.09375 576.7438Q489.89062 576.7438 489.0625 577.5563Q488.23438 578.35315 488.14062 579.7125ZM497.10938 582.8063L498.85938 582.525Q499.0 583.5719 499.67188 584.1344Q500.34375 584.6813 501.54688 584.6813Q502.75 584.6813 503.32812 584.1969Q503.92188 583.6969 503.92188 583.04065Q503.92188 582.4469 503.40625 582.10315Q503.04688 581.8688 501.60938 581.5094Q499.67188 581.0094 498.92188 580.66565Q498.1875 580.3063 497.79688 579.6813Q497.40625 579.04065 497.40625 578.275Q497.40625 577.5875 497.71875 576.9938Q498.04688 576.4 498.59375 576.0094Q499.0 575.7125 499.70312 575.5094Q500.42188 575.29065 501.23438 575.29065Q502.45312 575.29065 503.375 575.65Q504.29688 575.9938 504.73438 576.60315Q505.17188 577.1969 505.34375 578.1969L503.625 578.4313Q503.5 577.6344 502.9375 577.1969Q502.375 576.7438 501.35938 576.7438Q500.14062 576.7438 499.625 577.15Q499.10938 577.54065 499.10938 578.0719Q499.10938 578.41565 499.32812 578.6969Q499.53125 578.97815 500.0 579.16565Q500.26562 579.2594 501.54688 579.60315Q503.42188 580.10315 504.15625 580.4313Q504.89062 580.7438 505.3125 581.35315Q505.73438 581.9469 505.73438 582.85315Q505.73438 583.72815 505.21875 584.5094Q504.70312 585.29065 503.73438 585.7125Q502.76562 586.1344 501.54688 586.1344Q499.53125 586.1344 498.46875 585.29065Q497.40625 584.4469 497.10938 582.8063Z" fill-rule="nonzero"/><path fill="#000000" d="M59.6 516.66565Q59.6 515.1344 59.9125 514.2125Q60.225 513.275 60.834373 512.775Q61.459373 512.275 62.396873 512.275Q63.084373 512.275 63.6 512.5563Q64.13125 512.8375 64.475 513.3688Q64.81875 513.8844 65.00625 514.6344Q65.19375 515.3844 65.19375 516.66565Q65.19375 518.1813 64.88125 519.10315Q64.58437 520.025 63.959373 520.54065Q63.35 521.04065 62.396873 521.04065Q61.1625 521.04065 60.44375 520.15Q59.6 519.0875 59.6 516.66565ZM60.678123 516.66565Q60.678123 518.775 61.178123 519.47815Q61.678123 520.1813 62.396873 520.1813Q63.13125 520.1813 63.615623 519.47815Q64.11562 518.775 64.11562 516.66565Q64.11562 514.54065 63.615623 513.85315Q63.13125 513.15 62.38125 513.15Q61.6625 513.15 61.225 513.7594Q60.678123 514.54065 60.678123 516.66565Z" fill-rule="nonzero"/><path fill="#000000" d="M44.146873 411.3677L44.146873 412.38333L38.459373 412.38333Q38.459373 412.00833 38.584373 411.64896Q38.803123 411.07083 39.271873 410.50833Q39.75625 409.94583 40.6625 409.21146Q42.06875 408.0552 42.553123 407.38333Q43.053123 406.71146 43.053123 406.1177Q43.053123 405.4927 42.6 405.07083Q42.146873 404.63333 41.428123 404.63333Q40.6625 404.63333 40.209373 405.08646Q39.75625 405.53958 39.740623 406.35208L38.6625 406.2427Q38.771873 405.02396 39.490623 404.39896Q40.225 403.75833 41.459373 403.75833Q42.69375 403.75833 43.4125 404.44583Q44.13125 405.13333 44.13125 406.14896Q44.13125 406.66458 43.9125 407.16458Q43.709373 407.64896 43.209373 408.21146Q42.725 408.75833 41.6 409.71146Q40.646873 410.50833 40.365623 410.8052Q40.1 411.08646 39.928123 411.3677L44.146873 411.3677ZM45.6 410.13333L46.709373 410.03958Q46.834373 410.85208 47.271873 411.25833Q47.725 411.66458 48.365623 411.66458Q49.115623 411.66458 49.646873 411.08646Q50.178123 410.50833 50.178123 409.57083Q50.178123 408.66458 49.6625 408.14896Q49.1625 407.6177 48.334373 407.6177Q47.834373 407.6177 47.4125 407.85208Q47.00625 408.08646 46.771873 408.44583L45.7875 408.32083L46.615623 403.91458L50.896873 403.91458L50.896873 404.91458L47.459373 404.91458L47.00625 407.22708Q47.771873 406.6802 48.615623 406.6802Q49.740623 406.6802 50.50625 407.46146Q51.2875 408.2427 51.2875 409.47708Q51.2875 410.63333 50.615623 411.4927Q49.7875 412.52396 48.365623 412.52396Q47.19375 412.52396 46.44375 411.8677Q45.709373 411.21146 45.6 410.13333ZM52.6 408.14896Q52.6 406.6177 52.9125 405.69583Q53.225 404.75833 53.834373 404.25833Q54.459373 403.75833 55.396873 403.75833Q56.084373 403.75833 56.6 404.03958Q57.13125 404.32083 57.475 404.85208Q57.81875 405.3677 58.00625 406.1177Q58.19375 406.8677 58.19375 408.14896Q58.19375 409.66458 57.88125 410.58646Q57.584373 411.50833 56.959373 412.02396Q56.35 412.52396 55.396873 412.52396Q54.1625 412.52396 53.44375 411.63333Q52.6 410.57083 52.6 408.14896ZM53.678123 408.14896Q53.678123 410.25833 54.178123 410.96146Q54.678123 411.66458 55.396873 411.66458Q56.13125 411.66458 56.615623 410.96146Q57.115623 410.25833 57.115623 408.14896Q57.115623 406.02396 56.615623 405.33646Q56.13125 404.63333 55.38125 404.63333Q54.6625 404.63333 54.225 405.2427Q53.678123 406.02396 53.678123 408.14896ZM59.6 408.14896Q59.6 406.6177 59.9125 405.69583Q60.225 404.75833 60.834373 404.25833Q61.459373 403.75833 62.396873 403.75833Q63.084373 403.75833 63.6 404.03958Q64.13125 404.32083 64.475 404.85208Q64.81875 405.3677 65.00625 406.1177Q65.19375 406.8677 65.19375 408.14896Q65.19375 409.66458 64.88125 410.58646Q64.58437 411.50833 63.959373 412.02396Q63.35 412.52396 62.396873 412.52396Q61.1625 412.52396 60.44375 411.63333Q59.6 410.57083 59.6 408.14896ZM60.678123 408.14896Q60.678123 410.25833 61.178123 410.96146Q61.678123 411.66458 62.396873 411.66458Q63.13125 411.66458 63.615623 410.96146Q64.11562 410.25833 64.11562 408.14896Q64.11562 406.02396 63.615623 405.33646Q63.13125 404.63333 62.38125 404.63333Q61.6625 404.63333 61.225 405.2427Q60.678123 406.02396 60.678123 408.14896Z" fill-rule="nonzero"/><path fill="#000000" d="M38.6 301.61667L39.709373 301.52292Q39.834373 302.33542 40.271873 302.74167Q40.725 303.14792 41.365623 303.14792Q42.115623 303.14792 42.646873 302.5698Q43.178123 301.99167 43.178123 301.05417Q43.178123 300.14792 42.6625 299.6323Q42.1625 299.10104 41.334373 299.10104Q40.834373 299.10104 40.4125 299.33542Q40.00625 299.5698 39.771873 299.92917L38.7875 299.80417L39.615623 295.39792L43.896873 295.39792L43.896873 296.39792L40.459373 296.39792L40.00625 298.71042Q40.771873 298.16354 41.615623 298.16354Q42.740623 298.16354 43.50625 298.9448Q44.2875 299.72604 44.2875 300.96042Q44.2875 302.11667 43.615623 302.97604Q42.7875 304.0073 41.365623 304.0073Q40.19375 304.0073 39.44375 303.35104Q38.709373 302.6948 38.6 301.61667ZM45.6 299.6323Q45.6 298.10104 45.9125 297.17917Q46.225 296.24167 46.834373 295.74167Q47.459373 295.24167 48.396873 295.24167Q49.084373 295.24167 49.6 295.52292Q50.13125 295.80417 50.475 296.33542Q50.81875 296.85104 51.00625 297.60104Q51.19375 298.35104 51.19375 299.6323Q51.19375 301.14792 50.88125 302.0698Q50.584373 302.99167 49.959373 303.5073Q49.35 304.0073 48.396873 304.0073Q47.1625 304.0073 46.44375 303.11667Q45.6 302.05417 45.6 299.6323ZM46.678123 299.6323Q46.678123 301.74167 47.178123 302.4448Q47.678123 303.14792 48.396873 303.14792Q49.13125 303.14792 49.615623 302.4448Q50.115623 301.74167 50.115623 299.6323Q50.115623 297.5073 49.615623 296.8198Q49.13125 296.11667 48.38125 296.11667Q47.6625 296.11667 47.225 296.72604Q46.678123 297.5073 46.678123 299.6323ZM52.6 299.6323Q52.6 298.10104 52.9125 297.17917Q53.225 296.24167 53.834373 295.74167Q54.459373 295.24167 55.396873 295.24167Q56.084373 295.24167 56.6 295.52292Q57.13125 295.80417 57.475 296.33542Q57.81875 296.85104 58.00625 297.60104Q58.19375 298.35104 58.19375 299.6323Q58.19375 301.14792 57.88125 302.0698Q57.584373 302.99167 56.959373 303.5073Q56.35 304.0073 55.396873 304.0073Q54.1625 304.0073 53.44375 303.11667Q52.6 302.05417 52.6 299.6323ZM53.678123 299.6323Q53.678123 301.74167 54.178123 302.4448Q54.678123 303.14792 55.396873 303.14792Q56.13125 303.14792 56.615623 302.4448Q57.115623 301.74167 57.115623 299.6323Q57.115623 297.5073 56.615623 296.8198Q56.13125 296.11667 55.38125 296.11667Q54.6625 296.11667 54.225 296.72604Q53.678123 297.5073 53.678123 299.6323ZM59.6 299.6323Q59.6 298.10104 59.9125 297.17917Q60.225 296.24167 60.834373 295.74167Q61.459373 295.24167 62.396873 295.24167Q63.084373 295.24167 63.6 295.52292Q64.13125 295.80417 64.475 296.33542Q64.81875 296.85104 65.00625 297.60104Q65.19375 298.35104 65.19375 299.6323Q65.19375 301.14792 64.88125 302.0698Q64.58437 302.99167 63.959373 303.5073Q63.35 304.0073 62.396873 304.0073Q61.1625 304.0073 60.44375 303.11667Q59.6 302.05417 59.6 299.6323ZM60.678123 299.6323Q60.678123 301.74167 61.178123 302.4448Q61.678123 303.14792 62.396873 303.14792Q63.13125 303.14792 63.615623 302.4448Q64.11562 301.74167 64.11562 299.6323Q64.11562 297.5073 63.615623 296.8198Q63.13125 296.11667 62.38125 296.11667Q61.6625 296.11667 61.225 296.72604Q60.678123 297.5073 60.678123 299.6323Z" fill-rule="nonzero"/><path fill="#000000" d="M38.6625 187.88126L38.6625 186.86563L44.225 186.86563L44.225 187.69376Q43.4125 188.56876 42.6 190.02188Q41.803123 191.45938 41.365623 192.99063Q41.0375 194.06876 40.959373 195.35L39.865623 195.35Q39.88125 194.33438 40.25625 192.89688Q40.646873 191.45938 41.35 190.13126Q42.06875 188.80313 42.88125 187.88126L38.6625 187.88126ZM45.6 193.1L46.709373 193.00626Q46.834373 193.81876 47.271873 194.225Q47.725 194.63126 48.365623 194.63126Q49.115623 194.63126 49.646873 194.05313Q50.178123 193.475 50.178123 192.5375Q50.178123 191.63126 49.6625 191.11563Q49.1625 190.58438 48.334373 190.58438Q47.834373 190.58438 47.4125 190.81876Q47.00625 191.05313 46.771873 191.4125L45.7875 191.2875L46.615623 186.88126L50.896873 186.88126L50.896873 187.88126L47.459373 187.88126L47.00625 190.19376Q47.771873 189.64688 48.615623 189.64688Q49.740623 189.64688 50.50625 190.42813Q51.2875 191.20938 51.2875 192.44376Q51.2875 193.6 50.615623 194.45938Q49.7875 195.49063 48.365623 195.49063Q47.19375 195.49063 46.44375 194.83438Q45.709373 194.17813 45.6 193.1ZM52.6 191.11563Q52.6 189.58438 52.9125 188.6625Q53.225 187.725 53.834373 187.225Q54.459373 186.725 55.396873 186.725Q56.084373 186.725 56.6 187.00626Q57.13125 187.2875 57.475 187.81876Q57.81875 188.33438 58.00625 189.08438Q58.19375 189.83438 58.19375 191.11563Q58.19375 192.63126 57.88125 193.55313Q57.584373 194.475 56.959373 194.99063Q56.35 195.49063 55.396873 195.49063Q54.1625 195.49063 53.44375 194.6Q52.6 193.5375 52.6 191.11563ZM53.678123 191.11563Q53.678123 193.225 54.178123 193.92813Q54.678123 194.63126 55.396873 194.63126Q56.13125 194.63126 56.615623 193.92813Q57.115623 193.225 57.115623 191.11563Q57.115623 188.99063 56.615623 188.30313Q56.13125 187.6 55.38125 187.6Q54.6625 187.6 54.225 188.20938Q53.678123 188.99063 53.678123 191.11563ZM59.6 191.11563Q59.6 189.58438 59.9125 188.6625Q60.225 187.725 60.834373 187.225Q61.459373 186.725 62.396873 186.725Q63.084373 186.725 63.6 187.00626Q64.13125 187.2875 64.475 187.81876Q64.81875 188.33438 65.00625 189.08438Q65.19375 189.83438 65.19375 191.11563Q65.19375 192.63126 64.88125 193.55313Q64.58437 194.475 63.959373 194.99063Q63.35 195.49063 62.396873 195.49063Q61.1625 195.49063 60.44375 194.6Q59.6 193.5375 59.6 191.11563ZM60.678123 191.11563Q60.678123 193.225 61.178123 193.92813Q61.678123 194.63126 62.396873 194.63126Q63.13125 194.63126 63.615623 193.92813Q64.11562 193.225 64.11562 191.11563Q64.11562 188.99063 63.615623 188.30313Q63.13125 187.6 62.38125 187.6Q61.6625 187.6 61.225 188.20938Q60.678123 188.99063 60.678123 191.11563Z" fill-rule="nonzero"/><path fill="#000000" d="M35.56875 86.833336L34.521873 86.833336L34.521873 80.114586Q34.13125 80.47396 33.50625 80.84896Q32.896873 81.208336 32.4125 81.38021L32.4125 80.364586Q33.2875 79.94271 33.94375 79.364586Q34.615623 78.770836 34.896873 78.208336L35.56875 78.208336L35.56875 86.833336ZM38.6 82.59896Q38.6 81.06771 38.9125 80.145836Q39.225 79.208336 39.834373 78.708336Q40.459373 78.208336 41.396873 78.208336Q42.084373 78.208336 42.6 78.489586Q43.13125 78.770836 43.475 79.302086Q43.81875 79.81771 44.00625 80.56771Q44.19375 81.31771 44.19375 82.59896Q44.19375 84.114586 43.88125 85.03646Q43.584373 85.958336 42.959373 86.47396Q42.35 86.97396 41.396873 86.97396Q40.1625 86.97396 39.44375 86.083336Q38.6 85.020836 38.6 82.59896ZM39.678123 82.59896Q39.678123 84.708336 40.178123 85.41146Q40.678123 86.114586 41.396873 86.114586Q42.13125 86.114586 42.615623 85.41146Q43.115623 84.708336 43.115623 82.59896Q43.115623 80.47396 42.615623 79.78646Q42.13125 79.083336 41.38125 79.083336Q40.6625 79.083336 40.225 79.69271Q39.678123 80.47396 39.678123 82.59896ZM45.6 82.59896Q45.6 81.06771 45.9125 80.145836Q46.225 79.208336 46.834373 78.708336Q47.459373 78.208336 48.396873 78.208336Q49.084373 78.208336 49.6 78.489586Q50.13125 78.770836 50.475 79.302086Q50.81875 79.81771 51.00625 80.56771Q51.19375 81.31771 51.19375 82.59896Q51.19375 84.114586 50.88125 85.03646Q50.584373 85.958336 49.959373 86.47396Q49.35 86.97396 48.396873 86.97396Q47.1625 86.97396 46.44375 86.083336Q45.6 85.020836 45.6 82.59896ZM46.678123 82.59896Q46.678123 84.708336 47.178123 85.41146Q47.678123 86.114586 48.396873 86.114586Q49.13125 86.114586 49.615623 85.41146Q50.115623 84.708336 50.115623 82.59896Q50.115623 80.47396 49.615623 79.78646Q49.13125 79.083336 48.38125 79.083336Q47.6625 79.083336 47.225 79.69271Q46.678123 80.47396 46.678123 82.59896ZM52.6 82.59896Q52.6 81.06771 52.9125 80.145836Q53.225 79.208336 53.834373 78.708336Q54.459373 78.208336 55.396873 78.208336Q56.084373 78.208336 56.6 78.489586Q57.13125 78.770836 57.475 79.302086Q57.81875 79.81771 58.00625 80.56771Q58.19375 81.31771 58.19375 82.59896Q58.19375 84.114586 57.88125 85.03646Q57.584373 85.958336 56.959373 86.47396Q56.35 86.97396 55.396873 86.97396Q54.1625 86.97396 53.44375 86.083336Q52.6 85.020836 52.6 82.59896ZM53.678123 82.59896Q53.678123 84.708336 54.178123 85.41146Q54.678123 86.114586 55.396873 86.114586Q56.13125 86.114586 56.615623 85.41146Q57.115623 84.708336 57.115623 82.59896Q57.115623 80.47396 56.615623 79.78646Q56.13125 79.083336 55.38125 79.083336Q54.6625 79.083336 54.225 79.69271Q53.678123 80.47396 53.678123 82.59896ZM59.6 82.59896Q59.6 81.06771 59.9125 80.145836Q60.225 79.208336 60.834373 78.708336Q61.459373 78.208336 62.396873 78.208336Q63.084373 78.208336 63.6 78.489586Q64.13125 78.770836 64.475 79.302086Q64.81875 79.81771 65.00625 80.56771Q65.19375 81.31771 65.19375 82.59896Q65.19375 84.114586 64.88125 85.03646Q64.58437 85.958336 63.959373 86.47396Q63.35 86.97396 62.396873 86.97396Q61.1625 86.97396 60.44375 86.083336Q59.6 85.020836 59.6 82.59896ZM60.678123 82.59896Q60.678123 84.708336 61.178123 85.41146Q61.678123 86.114586 62.396873 86.114586Q63.13125 86.114586 63.615623 85.41146Q64.11562 84.708336 64.11562 82.59896Q64.11562 80.47396 63.615623 79.78646Q63.13125 79.083336 62.38125 79.083336Q61.6625 79.083336 61.225 79.69271Q60.678123 80.47396 60.678123 82.59896Z" fill-rule="nonzero"/><path fill="#000000" d="M811.4 516.66565Q811.4 515.1344 811.7125 514.2125Q812.025 513.275 812.6344 512.775Q813.2594 512.275 814.1969 512.275Q814.8844 512.275 815.4 512.5563Q815.9313 512.8375 816.275 513.3688Q816.6188 513.8844 816.8063 514.6344Q816.9938 515.3844 816.9938 516.66565Q816.9938 518.1813 816.6813 519.10315Q816.3844 520.025 815.7594 520.54065Q815.15 521.04065 814.1969 521.04065Q812.9625 521.04065 812.2438 520.15Q811.4 519.0875 811.4 516.66565ZM812.47815 516.66565Q812.47815 518.775 812.97815 519.47815Q813.47815 520.1813 814.1969 520.1813Q814.9313 520.1813 815.41565 519.47815Q815.91565 518.775 815.91565 516.66565Q815.91565 514.54065 815.41565 513.85315Q814.9313 513.15 814.1813 513.15Q813.4625 513.15 813.025 513.7594Q812.47815 514.54065 812.47815 516.66565Z" fill-rule="nonzero"/><path fill="#000000" d="M816.9469 375.1955L816.9469 376.21112L811.2594 376.21112Q811.2594 375.83612 811.3844 375.47675Q811.60315 374.89862 812.0719 374.33612Q812.5563 373.77362 813.4625 373.03925Q814.8688 371.883 815.35315 371.21112Q815.85315 370.53925 815.85315 369.9455Q815.85315 369.3205 815.4 368.89862Q814.9469 368.46112 814.22815 368.46112Q813.4625 368.46112 813.0094 368.91425Q812.5563 369.36737 812.54065 370.17987L811.4625 370.0705Q811.5719 368.85175 812.29065 368.22675Q813.025 367.58612 814.2594 367.58612Q815.4938 367.58612 816.2125 368.27362Q816.9313 368.96112 816.9313 369.97675Q816.9313 370.49237 816.7125 370.99237Q816.5094 371.47675 816.0094 372.03925Q815.525 372.58612 814.4 373.53925Q813.4469 374.33612 813.16565 374.633Q812.9 374.91425 812.72815 375.1955L816.9469 375.1955ZM818.4 371.97675Q818.4 370.4455 818.7125 369.52362Q819.025 368.58612 819.6344 368.08612Q820.2594 367.58612 821.1969 367.58612Q821.8844 367.58612 822.4 367.86737Q822.9313 368.14862 823.275 368.67987Q823.6188 369.1955 823.8063 369.9455Q823.9938 370.6955 823.9938 371.97675Q823.9938 373.49237 823.6813 374.41425Q823.3844 375.33612 822.7594 375.85175Q822.15 376.35175 821.1969 376.35175Q819.9625 376.35175 819.2438 375.46112Q818.4 374.39862 818.4 371.97675ZM819.47815 371.97675Q819.47815 374.08612 819.97815 374.78925Q820.47815 375.49237 821.1969 375.49237Q821.9313 375.49237 822.41565 374.78925Q822.91565 374.08612 822.91565 371.97675Q822.91565 369.85175 822.41565 369.16425Q821.9313 368.46112 821.1813 368.46112Q820.4625 368.46112 820.025 369.0705Q819.47815 369.85175 819.47815 371.97675ZM825.4 371.97675Q825.4 370.4455 825.7125 369.52362Q826.025 368.58612 826.6344 368.08612Q827.2594 367.58612 828.1969 367.58612Q828.8844 367.58612 829.4 367.86737Q829.9313 368.14862 830.275 368.67987Q830.6188 369.1955 830.8063 369.9455Q830.9938 370.6955 830.9938 371.97675Q830.9938 373.49237 830.6813 374.41425Q830.3844 375.33612 829.7594 375.85175Q829.15 376.35175 828.1969 376.35175Q826.9625 376.35175 826.2438 375.46112Q825.4 374.39862 825.4 371.97675ZM826.47815 371.97675Q826.47815 374.08612 826.97815 374.78925Q827.47815 375.49237 828.1969 375.49237Q828.9313 375.49237 829.41565 374.78925Q829.91565 374.08612 829.91565 371.97675Q829.91565 369.85175 829.41565 369.16425Q828.9313 368.46112 828.1813 368.46112Q827.4625 368.46112 827.025 369.0705Q826.47815 369.85175 826.47815 371.97675ZM832.4 371.97675Q832.4 370.4455 832.7125 369.52362Q833.025 368.58612 833.6344 368.08612Q834.2594 367.58612 835.1969 367.58612Q835.8844 367.58612 836.4 367.86737Q836.9313 368.14862 837.275 368.67987Q837.6188 369.1955 837.8063 369.9455Q837.9938 370.6955 837.9938 371.97675Q837.9938 373.49237 837.6813 374.41425Q837.3844 375.33612 836.7594 375.85175Q836.15 376.35175 835.1969 376.35175Q833.9625 376.35175 833.2438 375.46112Q832.4 374.39862 832.4 371.97675ZM833.47815 371.97675Q833.47815 374.08612 833.97815 374.78925Q834.47815 375.49237 835.1969 375.49237Q835.9313 375.49237 836.41565 374.78925Q836.91565 374.08612 836.91565 371.97675Q836.91565 369.85175 836.41565 369.16425Q835.9313 368.46112 835.1813 368.46112Q834.4625 368.46112 834.025 369.0705Q833.47815 369.85175 833.47815 371.97675ZM839.4 371.97675Q839.4 370.4455 839.7125 369.52362Q840.025 368.58612 840.6344 368.08612Q841.2594 367.58612 842.1969 367.58612Q842.8844 367.58612 843.4 367.86737Q843.9313 368.14862 844.275 368.67987Q844.6188 369.1955 844.8063 369.9455Q844.9938 370.6955 844.9938 371.97675Q844.9938 373.49237 844.6813 374.41425Q844.3844 375.33612 843.7594 375.85175Q843.15 376.35175 842.1969 376.35175Q840.9625 376.35175 840.2438 375.46112Q839.4 374.39862 839.4 371.97675ZM840.47815 371.97675Q840.47815 374.08612 840.97815 374.78925Q841.47815 375.49237 842.1969 375.49237Q842.9313 375.49237 843.41565 374.78925Q843.91565 374.08612 843.91565 371.97675Q843.91565 369.85175 843.41565 369.16425Q842.9313 368.46112 842.1813 368.46112Q841.4625 368.46112 841.025 369.0705Q840.47815 369.85175 840.47815 371.97675ZM846.4 371.97675Q846.4 370.4455 846.7125 369.52362Q847.025 368.58612 847.6344 368.08612Q848.2594 367.58612 849.1969 367.58612Q849.8844 367.58612 850.4 367.86737Q850.9313 368.14862 851.275 368.67987Q851.6188 369.1955 851.8063 369.9455Q851.9938 370.6955 851.9938 371.97675Q851.9938 373.49237 851.6813 374.41425Q851.3844 375.33612 850.7594 375.85175Q850.15 376.35175 849.1969 376.35175Q847.9625 376.35175 847.2438 375.46112Q846.4 374.39862 846.4 371.97675ZM847.47815 371.97675Q847.47815 374.08612 847.97815 374.78925Q848.47815 375.49237 849.1969 375.49237Q849.9313 375.49237 850.41565 374.78925Q850.91565 374.08612 850.91565 371.97675Q850.91565 369.85175 850.41565 369.16425Q849.9313 368.46112 849.1813 368.46112Q848.4625 368.46112 848.025 369.0705Q847.47815 369.85175 847.47815 371.97675Z" fill-rule="nonzero"/><path fill="#000000" d="M814.775 231.52222L814.775 229.45972L811.0563 229.45972L811.0563 228.49097L814.97815 222.92847L815.8375 222.92847L815.8375 228.49097L816.9938 228.49097L816.9938 229.45972L815.8375 229.45972L815.8375 231.52222L814.775 231.52222ZM814.775 228.49097L814.775 224.63159L812.0875 228.49097L814.775 228.49097ZM818.4 227.28784Q818.4 225.75659 818.7125 224.83472Q819.025 223.89722 819.6344 223.39722Q820.2594 222.89722 821.1969 222.89722Q821.8844 222.89722 822.4 223.17847Q822.9313 223.45972 823.275 223.99097Q823.6188 224.50659 823.8063 225.25659Q823.9938 226.00659 823.9938 227.28784Q823.9938 228.80347 823.6813 229.72534Q823.3844 230.64722 822.7594 231.16284Q822.15 231.66284 821.1969 231.66284Q819.9625 231.66284 819.2438 230.77222Q818.4 229.70972 818.4 227.28784ZM819.47815 227.28784Q819.47815 229.39722 819.97815 230.10034Q820.47815 230.80347 821.1969 230.80347Q821.9313 230.80347 822.41565 230.10034Q822.91565 229.39722 822.91565 227.28784Q822.91565 225.16284 822.41565 224.47534Q821.9313 223.77222 821.1813 223.77222Q820.4625 223.77222 820.025 224.38159Q819.47815 225.16284 819.47815 227.28784ZM825.4 227.28784Q825.4 225.75659 825.7125 224.83472Q826.025 223.89722 826.6344 223.39722Q827.2594 222.89722 828.1969 222.89722Q828.8844 222.89722 829.4 223.17847Q829.9313 223.45972 830.275 223.99097Q830.6188 224.50659 830.8063 225.25659Q830.9938 226.00659 830.9938 227.28784Q830.9938 228.80347 830.6813 229.72534Q830.3844 230.64722 829.7594 231.16284Q829.15 231.66284 828.1969 231.66284Q826.9625 231.66284 826.2438 230.77222Q825.4 229.70972 825.4 227.28784ZM826.47815 227.28784Q826.47815 229.39722 826.97815 230.10034Q827.47815 230.80347 828.1969 230.80347Q828.9313 230.80347 829.41565 230.10034Q829.91565 229.39722 829.91565 227.28784Q829.91565 225.16284 829.41565 224.47534Q828.9313 223.77222 828.1813 223.77222Q827.4625 223.77222 827.025 224.38159Q826.47815 225.16284 826.47815 227.28784ZM832.4 227.28784Q832.4 225.75659 832.7125 224.83472Q833.025 223.89722 833.6344 223.39722Q834.2594 222.89722 835.1969 222.89722Q835.8844 222.89722 836.4 223.17847Q836.9313 223.45972 837.275 223.99097Q837.6188 224.50659 837.8063 225.25659Q837.9938 226.00659 837.9938 227.28784Q837.9938 228.80347 837.6813 229.72534Q837.3844 230.64722 836.7594 231.16284Q836.15 231.66284 835.1969 231.66284Q833.9625 231.66284 833.2438 230.77222Q832.4 229.70972 832.4 227.28784ZM833.47815 227.28784Q833.47815 229.39722 833.97815 230.10034Q834.47815 230.80347 835.1969 230.80347Q835.9313 230.80347 836.41565 230.10034Q836.91565 229.39722 836.91565 227.28784Q836.91565 225.16284 836.41565 224.47534Q835.9313 223.77222 835.1813 223.77222Q834.4625 223.77222 834.025 224.38159Q833.47815 225.16284 833.47815 227.28784ZM839.4 227.28784Q839.4 225.75659 839.7125 224.83472Q840.025 223.89722 840.6344 223.39722Q841.2594 222.89722 842.1969 222.89722Q842.8844 222.89722 843.4 223.17847Q843.9313 223.45972 844.275 223.99097Q844.6188 224.50659 844.8063 225.25659Q844.9938 226.00659 844.9938 227.28784Q844.9938 228.80347 844.6813 229.72534Q844.3844 230.64722 843.7594 231.16284Q843.15 231.66284 842.1969 231.66284Q840.9625 231.66284 840.2438 230.77222Q839.4 229.70972 839.4 227.28784ZM840.47815 227.28784Q840.47815 229.39722 840.97815 230.10034Q841.47815 230.80347 842.1969 230.80347Q842.9313 230.80347 843.41565 230.10034Q843.91565 229.39722 843.91565 227.28784Q843.91565 225.16284 843.41565 224.47534Q842.9313 223.77222 842.1813 223.77222Q841.4625 223.77222 841.025 224.38159Q840.47815 225.16284 840.47815 227.28784ZM846.4 227.28784Q846.4 225.75659 846.7125 224.83472Q847.025 223.89722 847.6344 223.39722Q848.2594 222.89722 849.1969 222.89722Q849.8844 222.89722 850.4 223.17847Q850.9313 223.45972 851.275 223.99097Q851.6188 224.50659 851.8063 225.25659Q851.9938 226.00659 851.9938 227.28784Q851.9938 228.80347 851.6813 229.72534Q851.3844 230.64722 850.7594 231.16284Q850.15 231.66284 849.1969 231.66284Q847.9625 231.66284 847.2438 230.77222Q846.4 229.70972 846.4 227.28784ZM847.47815 227.28784Q847.47815 229.39722 847.97815 230.10034Q848.47815 230.80347 849.1969 230.80347Q849.9313 230.80347 850.41565 230.10034Q850.91565 229.39722 850.91565 227.28784Q850.91565 225.16284 850.41565 224.47534Q849.9313 223.77222 849.1813 223.77222Q848.4625 223.77222 848.025 224.38159Q847.47815 225.16284 847.47815 227.28784Z" fill-rule="nonzero"/><path fill="#000000" d="M816.8688 80.34896L815.8219 80.427086Q815.6813 79.802086 815.4313 79.520836Q814.9938 79.06771 814.3688 79.06771Q813.8688 79.06771 813.47815 79.34896Q812.9938 79.72396 812.6969 80.427086Q812.41565 81.114586 812.4 82.395836Q812.775 81.81771 813.3219 81.53646Q813.8844 81.25521 814.4938 81.25521Q815.54065 81.25521 816.275 82.03646Q817.025 82.81771 817.025 84.03646Q817.025 84.84896 816.66565 85.552086Q816.3219 86.239586 815.7125 86.614586Q815.10315 86.97396 814.3375 86.97396Q813.0094 86.97396 812.1813 86.00521Q811.35315 85.03646 811.35315 82.81771Q811.35315 80.31771 812.275 79.19271Q813.0719 78.208336 814.4313 78.208336Q815.4469 78.208336 816.0875 78.78646Q816.7438 79.34896 816.8688 80.34896ZM812.5719 84.052086Q812.5719 84.59896 812.79065 85.09896Q813.025 85.583336 813.4313 85.84896Q813.85315 86.114586 814.3219 86.114586Q814.97815 86.114586 815.4625 85.583336Q815.9469 85.03646 815.9469 84.114586Q815.9469 83.22396 815.4625 82.708336Q814.9938 82.19271 814.275 82.19271Q813.5563 82.19271 813.0563 82.708336Q812.5719 83.22396 812.5719 84.052086ZM818.4 82.59896Q818.4 81.06771 818.7125 80.145836Q819.025 79.208336 819.6344 78.708336Q820.2594 78.208336 821.1969 78.208336Q821.8844 78.208336 822.4 78.489586Q822.9313 78.770836 823.275 79.302086Q823.6188 79.81771 823.8063 80.56771Q823.9938 81.31771 823.9938 82.59896Q823.9938 84.114586 823.6813 85.03646Q823.3844 85.958336 822.7594 86.47396Q822.15 86.97396 821.1969 86.97396Q819.9625 86.97396 819.2438 86.083336Q818.4 85.020836 818.4 82.59896ZM819.47815 82.59896Q819.47815 84.708336 819.97815 85.41146Q820.47815 86.114586 821.1969 86.114586Q821.9313 86.114586 822.41565 85.41146Q822.91565 84.708336 822.91565 82.59896Q822.91565 80.47396 822.41565 79.78646Q821.9313 79.083336 821.1813 79.083336Q820.4625 79.083336 820.025 79.69271Q819.47815 80.47396 819.47815 82.59896ZM825.4 82.59896Q825.4 81.06771 825.7125 80.145836Q826.025 79.208336 826.6344 78.708336Q827.2594 78.208336 828.1969 78.208336Q828.8844 78.208336 829.4 78.489586Q829.9313 78.770836 830.275 79.302086Q830.6188 79.81771 830.8063 80.56771Q830.9938 81.31771 830.9938 82.59896Q830.9938 84.114586 830.6813 85.03646Q830.3844 85.958336 829.7594 86.47396Q829.15 86.97396 828.1969 86.97396Q826.9625 86.97396 826.2438 86.083336Q825.4 85.020836 825.4 82.59896ZM826.47815 82.59896Q826.47815 84.708336 826.97815 85.41146Q827.47815 86.114586 828.1969 86.114586Q828.9313 86.114586 829.41565 85.41146Q829.91565 84.708336 829.91565 82.59896Q829.91565 80.47396 829.41565 79.78646Q828.9313 79.083336 828.1813 79.083336Q827.4625 79.083336 827.025 79.69271Q826.47815 80.47396 826.47815 82.59896ZM832.4 82.59896Q832.4 81.06771 832.7125 80.145836Q833.025 79.208336 833.6344 78.708336Q834.2594 78.208336 835.1969 78.208336Q835.8844 78.208336 836.4 78.489586Q836.9313 78.770836 837.275 79.302086Q837.6188 79.81771 837.8063 80.56771Q837.9938 81.31771 837.9938 82.59896Q837.9938 84.114586 837.6813 85.03646Q837.3844 85.958336 836.7594 86.47396Q836.15 86.97396 835.1969 86.97396Q833.9625 86.97396 833.2438 86.083336Q832.4 85.020836 832.4 82.59896ZM833.47815 82.59896Q833.47815 84.708336 833.97815 85.41146Q834.47815 86.114586 835.1969 86.114586Q835.9313 86.114586 836.41565 85.41146Q836.91565 84.708336 836.91565 82.59896Q836.91565 80.47396 836.41565 79.78646Q835.9313 79.083336 835.1813 79.083336Q834.4625 79.083336 834.025 79.69271Q833.47815 80.47396 833.47815 82.59896ZM839.4 82.59896Q839.4 81.06771 839.7125 80.145836Q840.025 79.208336 840.6344 78.708336Q841.2594 78.208336 842.1969 78.208336Q842.8844 78.208336 843.4 78.489586Q843.9313 78.770836 844.275 79.302086Q844.6188 79.81771 844.8063 80.56771Q844.9938 81.31771 844.9938 82.59896Q844.9938 84.114586 844.6813 85.03646Q844.3844 85.958336 843.7594 86.47396Q843.15 86.97396 842.1969 86.97396Q840.9625 86.97396 840.2438 86.083336Q839.4 85.020836 839.4 82.59896ZM840.47815 82.59896Q840.47815 84.708336 840.97815 85.41146Q841.47815 86.114586 842.1969 86.114586Q842.9313 86.114586 843.41565 85.41146Q843.91565 84.708336 843.91565 82.59896Q843.91565 80.47396 843.41565 79.78646Q842.9313 79.083336 842.1813 79.083336Q841.4625 79.083336 841.025 79.69271Q840.47815 80.47396 840.47815 82.59896ZM846.4 82.59896Q846.4 81.06771 846.7125 80.145836Q847.025 79.208336 847.6344 78.708336Q848.2594 78.208336 849.1969 78.208336Q849.8844 78.208336 850.4 78.489586Q850.9313 78.770836 851.275 79.302086Q851.6188 79.81771 851.8063 80.56771Q851.9938 81.31771 851.9938 82.59896Q851.9938 84.114586 851.6813 85.03646Q851.3844 85.958336 850.7594 86.47396Q850.15 86.97396 849.1969 86.97396Q847.9625 86.97396 847.2438 86.083336Q846.4 85.020836 846.4 82.59896ZM847.47815 82.59896Q847.47815 84.708336 847.97815 85.41146Q848.47815 86.114586 849.1969 86.114586Q849.9313 86.114586 850.41565 85.41146Q850.91565 84.708336 850.91565 82.59896Q850.91565 80.47396 850.41565 79.78646Q849.9313 79.083336 849.1813 79.083336Q848.4625 79.083336 848.025 79.69271Q847.47815 80.47396 847.47815 82.59896Z" fill-rule="nonzero"/><path fill="#000000" d="M116.91794 533.9L116.91794 525.3063L118.07419 525.3063L122.58981 532.0563L122.58981 525.3063L123.68356 525.3063L123.68356 533.9L122.51169 533.9L117.99606 527.15L117.99606 533.9L116.91794 533.9ZM125.79294 526.525L125.79294 525.3063L126.85544 525.3063L126.85544 526.525L125.79294 526.525ZM125.79294 533.9L125.79294 527.6813L126.85544 527.6813L126.85544 533.9L125.79294 533.9ZM128.08981 533.9L130.35544 530.66565L128.26169 527.6813L129.57419 527.6813L130.52731 529.1344Q130.79294 529.5563 130.96481 529.8375Q131.21481 529.4469 131.43356 529.15L132.48044 527.6813L133.74606 527.6813L131.58981 530.60315L133.90231 533.9L132.62106 533.9L131.33981 531.9625L130.99606 531.4469L129.35544 533.9L128.08981 533.9ZM133.57419 529.7125Q133.57419 527.5719 134.71481 526.3688Q135.87106 525.15 137.68356 525.15Q138.88669 525.15 139.83981 525.72815Q140.79294 526.29065 141.29294 527.3063Q141.79294 528.3219 141.79294 529.6188Q141.79294 530.91565 141.26169 531.9469Q140.73044 532.97815 139.76169 533.5094Q138.80856 534.04065 137.68356 534.04065Q136.46481 534.04065 135.51169 533.4625Q134.55856 532.8688 134.05856 531.8688Q133.57419 530.85315 133.57419 529.7125ZM134.74606 529.72815Q134.74606 531.29065 135.57419 532.1813Q136.41794 533.0719 137.68356 533.0719Q138.96481 533.0719 139.79294 532.1813Q140.62106 531.275 140.62106 529.60315Q140.62106 528.5563 140.26169 527.775Q139.91794 526.9938 139.23044 526.5719Q138.54294 526.1344 137.69919 526.1344Q136.49606 526.1344 135.62106 526.9625Q134.74606 527.79065 134.74606 529.72815ZM142.54294 531.1344L143.60544 531.04065Q143.68356 531.6969 143.96481 532.10315Q144.24606 532.5094 144.82419 532.775Q145.41794 533.025 146.15231 533.025Q146.79294 533.025 147.29294 532.8375Q147.79294 532.6344 148.02731 532.3063Q148.27731 531.9625 148.27731 531.5719Q148.27731 531.16565 148.04294 530.8688Q147.80856 530.5563 147.27731 530.35315Q146.91794 530.2125 145.73044 529.9313Q144.55856 529.65 144.08981 529.4Q143.46481 529.0719 143.16794 528.60315Q142.87106 528.1188 142.87106 527.525Q142.87106 526.8844 143.23044 526.3219Q143.60544 525.7438 144.30856 525.4625Q145.02731 525.16565 145.88669 525.16565Q146.83981 525.16565 147.57419 525.47815Q148.30856 525.775 148.69919 526.3844Q149.08981 526.97815 149.12106 527.72815L148.02731 527.8063Q147.93356 526.9938 147.41794 526.5875Q146.91794 526.16565 145.93356 526.16565Q144.90231 526.16565 144.43356 526.54065Q143.96481 526.91565 143.96481 527.4469Q143.96481 527.91565 144.29294 528.2125Q144.62106 528.5094 145.99606 528.8219Q147.38669 529.1344 147.90231 529.3688Q148.65231 529.72815 149.01169 530.2594Q149.37106 530.775 149.37106 531.47815Q149.37106 532.16565 148.98044 532.775Q148.58981 533.3688 147.85544 533.7125Q147.12106 534.04065 146.19919 534.04065Q145.02731 534.04065 144.23044 533.7125Q143.44919 533.3688 142.99606 532.6813Q142.55856 531.9938 142.54294 531.1344ZM159.04294 532.8844L159.04294 533.9L153.35544 533.9Q153.35544 533.525 153.48044 533.16565Q153.69919 532.5875 154.16794 532.025Q154.65231 531.4625 155.55856 530.72815Q156.96481 529.5719 157.44919 528.9Q157.94919 528.22815 157.94919 527.6344Q157.94919 527.0094 157.49606 526.5875Q157.04294 526.15 156.32419 526.15Q155.55856 526.15 155.10544 526.60315Q154.65231 527.0563 154.63669 527.8688L153.55856 527.7594Q153.66794 526.54065 154.38669 525.91565Q155.12106 525.275 156.35544 525.275Q157.58981 525.275 158.30856 525.9625Q159.02731 526.65 159.02731 527.66565Q159.02731 528.1813 158.80856 528.6813Q158.60544 529.16565 158.10544 529.72815Q157.62106 530.275 156.49606 531.22815Q155.54294 532.025 155.26169 532.3219Q154.99606 532.60315 154.82419 532.8844L159.04294 532.8844ZM164.46481 533.9L163.41794 533.9L163.41794 527.1813Q163.02731 527.54065 162.40231 527.91565Q161.79294 528.275 161.30856 528.4469L161.30856 527.4313Q162.18356 527.0094 162.83981 526.4313Q163.51169 525.8375 163.79294 525.275L164.46481 525.275L164.46481 533.9ZM168.08981 533.9L168.08981 532.6969L169.29294 532.6969L169.29294 533.9L168.08981 533.9ZM170.49606 529.66565Q170.49606 528.1344 170.80856 527.2125Q171.12106 526.275 171.73044 525.775Q172.35544 525.275 173.29294 525.275Q173.98044 525.275 174.49606 525.5563Q175.02731 525.8375 175.37106 526.3688Q175.71481 526.8844 175.90231 527.6344Q176.08981 528.3844 176.08981 529.66565Q176.08981 531.1813 175.77731 532.10315Q175.48044 533.025 174.85544 533.54065Q174.24606 534.04065 173.29294 534.04065Q172.05856 534.04065 171.33981 533.15Q170.49606 532.0875 170.49606 529.66565ZM171.57419 529.66565Q171.57419 531.775 172.07419 532.47815Q172.57419 533.1813 173.29294 533.1813Q174.02731 533.1813 174.51169 532.47815Q175.01169 531.775 175.01169 529.66565Q175.01169 527.54065 174.51169 526.85315Q174.02731 526.15 173.27731 526.15Q172.55856 526.15 172.12106 526.7594Q171.57419 527.54065 171.57419 529.66565ZM177.49606 531.65L178.60544 531.5563Q178.73044 532.3688 179.16794 532.775Q179.62106 533.1813 180.26169 533.1813Q181.01169 533.1813 181.54294 532.60315Q182.07419 532.025 182.07419 531.0875Q182.07419 530.1813 181.55856 529.66565Q181.05856 529.1344 180.23044 529.1344Q179.73044 529.1344 179.30856 529.3688Q178.90231 529.60315 178.66794 529.9625L177.68356 529.8375L178.51169 525.4313L182.79294 525.4313L182.79294 526.4313L179.35544 526.4313L178.90231 528.7438Q179.66794 528.1969 180.51169 528.1969Q181.63669 528.1969 182.40231 528.97815Q183.18356 529.7594 183.18356 530.9938Q183.18356 532.15 182.51169 533.0094Q181.68356 534.04065 180.26169 534.04065Q179.08981 534.04065 178.33981 533.3844Q177.60544 532.72815 177.49606 531.65Z" fill-rule="nonzero"/><path fill="#000000" d="M232.31952 533.9L232.31952 525.3063L233.47577 525.3063L237.9914 532.0563L237.9914 525.3063L239.08514 525.3063L239.08514 533.9L237.91327 533.9L233.39764 527.15L233.39764 533.9L232.31952 533.9ZM241.19452 526.525L241.19452 525.3063L242.25702 525.3063L242.25702 526.525L241.19452 526.525ZM241.19452 533.9L241.19452 527.6813L242.25702 527.6813L242.25702 533.9L241.19452 533.9ZM243.4914 533.9L245.75702 530.66565L243.66327 527.6813L244.97577 527.6813L245.9289 529.1344Q246.19452 529.5563 246.3664 529.8375Q246.6164 529.4469 246.83514 529.15L247.88202 527.6813L249.14764 527.6813L246.9914 530.60315L249.3039 533.9L248.02264 533.9L246.7414 531.9625L246.39764 531.4469L244.75702 533.9L243.4914 533.9ZM248.97577 529.7125Q248.97577 527.5719 250.1164 526.3688Q251.27264 525.15 253.08514 525.15Q254.28827 525.15 255.2414 525.72815Q256.19452 526.29065 256.69452 527.3063Q257.19452 528.3219 257.19452 529.6188Q257.19452 530.91565 256.66327 531.9469Q256.13202 532.97815 255.16327 533.5094Q254.21014 534.04065 253.08514 534.04065Q251.8664 534.04065 250.91327 533.4625Q249.96014 532.8688 249.46014 531.8688Q248.97577 530.85315 248.97577 529.7125ZM250.14764 529.72815Q250.14764 531.29065 250.97577 532.1813Q251.81952 533.0719 253.08514 533.0719Q254.3664 533.0719 255.19452 532.1813Q256.02264 531.275 256.02264 529.60315Q256.02264 528.5563 255.66327 527.775Q255.31952 526.9938 254.63202 526.5719Q253.94452 526.1344 253.10077 526.1344Q251.89764 526.1344 251.02264 526.9625Q250.14764 527.79065 250.14764 529.72815ZM257.94452 531.1344L259.00702 531.04065Q259.08514 531.6969 259.3664 532.10315Q259.64764 532.5094 260.22577 532.775Q260.81952 533.025 261.5539 533.025Q262.19452 533.025 262.69452 532.8375Q263.19452 532.6344 263.4289 532.3063Q263.6789 531.9625 263.6789 531.5719Q263.6789 531.16565 263.44452 530.8688Q263.21014 530.5563 262.6789 530.35315Q262.31952 530.2125 261.13202 529.9313Q259.96014 529.65 259.4914 529.4Q258.8664 529.0719 258.56952 528.60315Q258.27264 528.1188 258.27264 527.525Q258.27264 526.8844 258.63202 526.3219Q259.00702 525.7438 259.71014 525.4625Q260.4289 525.16565 261.28827 525.16565Q262.2414 525.16565 262.97577 525.47815Q263.71014 525.775 264.10077 526.3844Q264.4914 526.97815 264.52264 527.72815L263.4289 527.8063Q263.33514 526.9938 262.81952 526.5875Q262.31952 526.16565 261.33514 526.16565Q260.3039 526.16565 259.83514 526.54065Q259.3664 526.91565 259.3664 527.4469Q259.3664 527.91565 259.69452 528.2125Q260.02264 528.5094 261.39764 528.8219Q262.78827 529.1344 263.3039 529.3688Q264.0539 529.72815 264.41327 530.2594Q264.77264 530.775 264.77264 531.47815Q264.77264 532.16565 264.38202 532.775Q263.9914 533.3688 263.25702 533.7125Q262.52264 534.04065 261.60077 534.04065Q260.4289 534.04065 259.63202 533.7125Q258.85077 533.3688 258.39764 532.6813Q257.96014 531.9938 257.94452 531.1344ZM274.44452 532.8844L274.44452 533.9L268.75702 533.9Q268.75702 533.525 268.88202 533.16565Q269.10077 532.5875 269.56952 532.025Q270.0539 531.4625 270.96014 530.72815Q272.3664 529.5719 272.85077 528.9Q273.35077 528.22815 273.35077 527.6344Q273.35077 527.0094 272.89764 526.5875Q272.44452 526.15 271.72577 526.15Q270.96014 526.15 270.50702 526.60315Q270.0539 527.0563 270.03827 527.8688L268.96014 527.7594Q269.06952 526.54065 269.78827 525.91565Q270.52264 525.275 271.75702 525.275Q272.9914 525.275 273.71014 525.9625Q274.4289 526.65 274.4289 527.66565Q274.4289 528.1813 274.21014 528.6813Q274.00702 529.16565 273.50702 529.72815Q273.02264 530.275 271.89764 531.22815Q270.94452 532.025 270.66327 532.3219Q270.39764 532.60315 270.22577 532.8844L274.44452 532.8844ZM279.8664 533.9L278.81952 533.9L278.81952 527.1813Q278.4289 527.54065 277.8039 527.91565Q277.19452 528.275 276.71014 528.4469L276.71014 527.4313Q277.58514 527.0094 278.2414 526.4313Q278.91327 525.8375 279.19452 525.275L279.8664 525.275L279.8664 533.9ZM283.4914 533.9L283.4914 532.6969L284.69452 532.6969L284.69452 533.9L283.4914 533.9ZM289.8664 533.9L288.81952 533.9L288.81952 527.1813Q288.4289 527.54065 287.8039 527.91565Q287.19452 528.275 286.71014 528.4469L286.71014 527.4313Q287.58514 527.0094 288.2414 526.4313Q288.91327 525.8375 289.19452 525.275L289.8664 525.275L289.8664 533.9ZM296.8664 533.9L295.81952 533.9L295.81952 527.1813Q295.4289 527.54065 294.8039 527.91565Q294.19452 528.275 293.71014 528.4469L293.71014 527.4313Q294.58514 527.0094 295.2414 526.4313Q295.91327 525.8375 296.19452 525.275L296.8664 525.275L296.8664 533.9Z" fill-rule="nonzero"/><path fill="#000000" d="M347.7211 533.9L347.7211 525.3063L348.87735 525.3063L353.39297 532.0563L353.39297 525.3063L354.48672 525.3063L354.48672 533.9L353.31485 533.9L348.79922 527.15L348.79922 533.9L347.7211 533.9ZM356.5961 526.525L356.5961 525.3063L357.6586 525.3063L357.6586 526.525L356.5961 526.525ZM356.5961 533.9L356.5961 527.6813L357.6586 527.6813L357.6586 533.9L356.5961 533.9ZM358.89297 533.9L361.1586 530.66565L359.06485 527.6813L360.37735 527.6813L361.33047 529.1344Q361.5961 529.5563 361.76797 529.8375Q362.01797 529.4469 362.23672 529.15L363.2836 527.6813L364.54922 527.6813L362.39297 530.60315L364.70547 533.9L363.42422 533.9L362.14297 531.9625L361.79922 531.4469L360.1586 533.9L358.89297 533.9ZM364.37735 529.7125Q364.37735 527.5719 365.51797 526.3688Q366.67422 525.15 368.48672 525.15Q369.68985 525.15 370.64297 525.72815Q371.5961 526.29065 372.0961 527.3063Q372.5961 528.3219 372.5961 529.6188Q372.5961 530.91565 372.06485 531.9469Q371.5336 532.97815 370.56485 533.5094Q369.61172 534.04065 368.48672 534.04065Q367.26797 534.04065 366.31485 533.4625Q365.36172 532.8688 364.86172 531.8688Q364.37735 530.85315 364.37735 529.7125ZM365.54922 529.72815Q365.54922 531.29065 366.37735 532.1813Q367.2211 533.0719 368.48672 533.0719Q369.76797 533.0719 370.5961 532.1813Q371.42422 531.275 371.42422 529.60315Q371.42422 528.5563 371.06485 527.775Q370.7211 526.9938 370.0336 526.5719Q369.3461 526.1344 368.50235 526.1344Q367.29922 526.1344 366.42422 526.9625Q365.54922 527.79065 365.54922 529.72815ZM373.3461 531.1344L374.4086 531.04065Q374.48672 531.6969 374.76797 532.10315Q375.04922 532.5094 375.62735 532.775Q376.2211 533.025 376.95547 533.025Q377.5961 533.025 378.0961 532.8375Q378.5961 532.6344 378.83047 532.3063Q379.08047 531.9625 379.08047 531.5719Q379.08047 531.16565 378.8461 530.8688Q378.61172 530.5563 378.08047 530.35315Q377.7211 530.2125 376.5336 529.9313Q375.36172 529.65 374.89297 529.4Q374.26797 529.0719 373.9711 528.60315Q373.67422 528.1188 373.67422 527.525Q373.67422 526.8844 374.0336 526.3219Q374.4086 525.7438 375.11172 525.4625Q375.83047 525.16565 376.68985 525.16565Q377.64297 525.16565 378.37735 525.47815Q379.11172 525.775 379.50235 526.3844Q379.89297 526.97815 379.92422 527.72815L378.83047 527.8063Q378.73672 526.9938 378.2211 526.5875Q377.7211 526.16565 376.73672 526.16565Q375.70547 526.16565 375.23672 526.54065Q374.76797 526.91565 374.76797 527.4469Q374.76797 527.91565 375.0961 528.2125Q375.42422 528.5094 376.79922 528.8219Q378.18985 529.1344 378.70547 529.3688Q379.45547 529.72815 379.81485 530.2594Q380.17422 530.775 380.17422 531.47815Q380.17422 532.16565 379.7836 532.775Q379.39297 533.3688 378.6586 533.7125Q377.92422 534.04065 377.00235 534.04065Q375.83047 534.04065 375.0336 533.7125Q374.25235 533.3688 373.79922 532.6813Q373.36172 531.9938 373.3461 531.1344ZM389.8461 532.8844L389.8461 533.9L384.1586 533.9Q384.1586 533.525 384.2836 533.16565Q384.50235 532.5875 384.9711 532.025Q385.45547 531.4625 386.36172 530.72815Q387.76797 529.5719 388.25235 528.9Q388.75235 528.22815 388.75235 527.6344Q388.75235 527.0094 388.29922 526.5875Q387.8461 526.15 387.12735 526.15Q386.36172 526.15 385.9086 526.60315Q385.45547 527.0563 385.43985 527.8688L384.36172 527.7594Q384.4711 526.54065 385.18985 525.91565Q385.92422 525.275 387.1586 525.275Q388.39297 525.275 389.11172 525.9625Q389.83047 526.65 389.83047 527.66565Q389.83047 528.1813 389.61172 528.6813Q389.4086 529.16565 388.9086 529.72815Q388.42422 530.275 387.29922 531.22815Q386.3461 532.025 386.06485 532.3219Q385.79922 532.60315 385.62735 532.8844L389.8461 532.8844ZM396.8461 532.8844L396.8461 533.9L391.1586 533.9Q391.1586 533.525 391.2836 533.16565Q391.50235 532.5875 391.9711 532.025Q392.45547 531.4625 393.36172 530.72815Q394.76797 529.5719 395.25235 528.9Q395.75235 528.22815 395.75235 527.6344Q395.75235 527.0094 395.29922 526.5875Q394.8461 526.15 394.12735 526.15Q393.36172 526.15 392.9086 526.60315Q392.45547 527.0563 392.43985 527.8688L391.36172 527.7594Q391.4711 526.54065 392.18985 525.91565Q392.92422 525.275 394.1586 525.275Q395.39297 525.275 396.11172 525.9625Q396.83047 526.65 396.83047 527.66565Q396.83047 528.1813 396.61172 528.6813Q396.4086 529.16565 395.9086 529.72815Q395.42422 530.275 394.29922 531.22815Q393.3461 532.025 393.06485 532.3219Q392.79922 532.60315 392.62735 532.8844L396.8461 532.8844ZM398.89297 533.9L398.89297 532.6969L400.0961 532.6969L400.0961 533.9L398.89297 533.9ZM401.29922 529.66565Q401.29922 528.1344 401.61172 527.2125Q401.92422 526.275 402.5336 525.775Q403.1586 525.275 404.0961 525.275Q404.7836 525.275 405.29922 525.5563Q405.83047 525.8375 406.17422 526.3688Q406.51797 526.8844 406.70547 527.6344Q406.89297 528.3844 406.89297 529.66565Q406.89297 531.1813 406.58047 532.10315Q406.2836 533.025 405.6586 533.54065Q405.04922 534.04065 404.0961 534.04065Q402.86172 534.04065 402.14297 533.15Q401.29922 532.0875 401.29922 529.66565ZM402.37735 529.66565Q402.37735 531.775 402.87735 532.47815Q403.37735 533.1813 404.0961 533.1813Q404.83047 533.1813 405.31485 532.47815Q405.81485 531.775 405.81485 529.66565Q405.81485 527.54065 405.31485 526.85315Q404.83047 526.15 404.08047 526.15Q403.36172 526.15 402.92422 526.7594Q402.37735 527.54065 402.37735 529.66565ZM408.29922 531.65L409.4086 531.5563Q409.5336 532.3688 409.9711 532.775Q410.42422 533.1813 411.06485 533.1813Q411.81485 533.1813 412.3461 532.60315Q412.87735 532.025 412.87735 531.0875Q412.87735 530.1813 412.36172 529.66565Q411.86172 529.1344 411.0336 529.1344Q410.5336 529.1344 410.11172 529.3688Q409.70547 529.60315 409.4711 529.9625L408.48672 529.8375L409.31485 525.4313L413.5961 525.4313L413.5961 526.4313L410.1586 526.4313L409.70547 528.7438Q410.4711 528.1969 411.31485 528.1969Q412.43985 528.1969 413.20547 528.97815Q413.98672 529.7594 413.98672 530.9938Q413.98672 532.15 413.31485 533.0094Q412.48672 534.04065 411.06485 534.04065Q409.89297 534.04065 409.14297 533.3844Q408.4086 532.72815 408.29922 531.65Z" fill-rule="nonzero"/><path fill="#000000" d="M463.12265 533.9L463.12265 525.3063L464.2789 525.3063L468.79453 532.0563L468.79453 525.3063L469.88828 525.3063L469.88828 533.9L468.7164 533.9L464.20078 527.15L464.20078 533.9L463.12265 533.9ZM471.99765 526.525L471.99765 525.3063L473.06015 525.3063L473.06015 526.525L471.99765 526.525ZM471.99765 533.9L471.99765 527.6813L473.06015 527.6813L473.06015 533.9L471.99765 533.9ZM474.29453 533.9L476.56015 530.66565L474.4664 527.6813L475.7789 527.6813L476.73203 529.1344Q476.99765 529.5563 477.16953 529.8375Q477.41953 529.4469 477.63828 529.15L478.68515 527.6813L479.95078 527.6813L477.79453 530.60315L480.10703 533.9L478.82578 533.9L477.54453 531.9625L477.20078 531.4469L475.56015 533.9L474.29453 533.9ZM479.7789 529.7125Q479.7789 527.5719 480.91953 526.3688Q482.07578 525.15 483.88828 525.15Q485.0914 525.15 486.04453 525.72815Q486.99765 526.29065 487.49765 527.3063Q487.99765 528.3219 487.99765 529.6188Q487.99765 530.91565 487.4664 531.9469Q486.93515 532.97815 485.9664 533.5094Q485.01328 534.04065 483.88828 534.04065Q482.66953 534.04065 481.7164 533.4625Q480.76328 532.8688 480.26328 531.8688Q479.7789 530.85315 479.7789 529.7125ZM480.95078 529.72815Q480.95078 531.29065 481.7789 532.1813Q482.62265 533.0719 483.88828 533.0719Q485.16953 533.0719 485.99765 532.1813Q486.82578 531.275 486.82578 529.60315Q486.82578 528.5563 486.4664 527.775Q486.12265 526.9938 485.43515 526.5719Q484.74765 526.1344 483.9039 526.1344Q482.70078 526.1344 481.82578 526.9625Q480.95078 527.79065 480.95078 529.72815ZM488.74765 531.1344L489.81015 531.04065Q489.88828 531.6969 490.16953 532.10315Q490.45078 532.5094 491.0289 532.775Q491.62265 533.025 492.35703 533.025Q492.99765 533.025 493.49765 532.8375Q493.99765 532.6344 494.23203 532.3063Q494.48203 531.9625 494.48203 531.5719Q494.48203 531.16565 494.24765 530.8688Q494.01328 530.5563 493.48203 530.35315Q493.12265 530.2125 491.93515 529.9313Q490.76328 529.65 490.29453 529.4Q489.66953 529.0719 489.37265 528.60315Q489.07578 528.1188 489.07578 527.525Q489.07578 526.8844 489.43515 526.3219Q489.81015 525.7438 490.51328 525.4625Q491.23203 525.16565 492.0914 525.16565Q493.04453 525.16565 493.7789 525.47815Q494.51328 525.775 494.9039 526.3844Q495.29453 526.97815 495.32578 527.72815L494.23203 527.8063Q494.13828 526.9938 493.62265 526.5875Q493.12265 526.16565 492.13828 526.16565Q491.10703 526.16565 490.63828 526.54065Q490.16953 526.91565 490.16953 527.4469Q490.16953 527.91565 490.49765 528.2125Q490.82578 528.5094 492.20078 528.8219Q493.5914 529.1344 494.10703 529.3688Q494.85703 529.72815 495.2164 530.2594Q495.57578 530.775 495.57578 531.47815Q495.57578 532.16565 495.18515 532.775Q494.79453 533.3688 494.06015 533.7125Q493.32578 534.04065 492.4039 534.04065Q491.23203 534.04065 490.43515 533.7125Q489.6539 533.3688 489.20078 532.6813Q488.76328 531.9938 488.74765 531.1344ZM505.24765 532.8844L505.24765 533.9L499.56015 533.9Q499.56015 533.525 499.68515 533.16565Q499.9039 532.5875 500.37265 532.025Q500.85703 531.4625 501.76328 530.72815Q503.16953 529.5719 503.6539 528.9Q504.1539 528.22815 504.1539 527.6344Q504.1539 527.0094 503.70078 526.5875Q503.24765 526.15 502.5289 526.15Q501.76328 526.15 501.31015 526.60315Q500.85703 527.0563 500.8414 527.8688L499.76328 527.7594Q499.87265 526.54065 500.5914 525.91565Q501.32578 525.275 502.56015 525.275Q503.79453 525.275 504.51328 525.9625Q505.23203 526.65 505.23203 527.66565Q505.23203 528.1813 505.01328 528.6813Q504.81015 529.16565 504.31015 529.72815Q503.82578 530.275 502.70078 531.22815Q501.74765 532.025 501.4664 532.3219Q501.20078 532.60315 501.0289 532.8844L505.24765 532.8844ZM512.2477 532.8844L512.2477 533.9L506.56015 533.9Q506.56015 533.525 506.68515 533.16565Q506.9039 532.5875 507.37265 532.025Q507.85703 531.4625 508.76328 530.72815Q510.16953 529.5719 510.6539 528.9Q511.1539 528.22815 511.1539 527.6344Q511.1539 527.0094 510.70078 526.5875Q510.24765 526.15 509.5289 526.15Q508.76328 526.15 508.31015 526.60315Q507.85703 527.0563 507.8414 527.8688L506.76328 527.7594Q506.87265 526.54065 507.5914 525.91565Q508.32578 525.275 509.56015 525.275Q510.79453 525.275 511.51328 525.9625Q512.23206 526.65 512.23206 527.66565Q512.23206 528.1813 512.0133 528.6813Q511.81015 529.16565 511.31015 529.72815Q510.82578 530.275 509.70078 531.22815Q508.74765 532.025 508.4664 532.3219Q508.20078 532.60315 508.0289 532.8844L512.2477 532.8844ZM514.29456 533.9L514.29456 532.6969L515.4977 532.6969L515.4977 533.9L514.29456 533.9ZM520.66956 533.9L519.6227 533.9L519.6227 527.1813Q519.23206 527.54065 518.60706 527.91565Q517.9977 528.275 517.5133 528.4469L517.5133 527.4313Q518.3883 527.0094 519.04456 526.4313Q519.71643 525.8375 519.9977 525.275L520.66956 525.275L520.66956 533.9ZM527.66956 533.9L526.6227 533.9L526.6227 527.1813Q526.23206 527.54065 525.60706 527.91565Q524.9977 528.275 524.5133 528.4469L524.5133 527.4313Q525.3883 527.0094 526.04456 526.4313Q526.71643 525.8375 526.9977 525.275L527.66956 525.275L527.66956 533.9Z" fill-rule="nonzero"/><path fill="#000000" d="M578.52423 533.9L578.52423 525.3063L579.6805 525.3063L584.1961 532.0563L584.1961 525.3063L585.28986 525.3063L585.28986 533.9L584.118 533.9L579.60236 527.15L579.60236 533.9L578.52423 533.9ZM587.39923 526.525L587.39923 525.3063L588.46173 525.3063L588.46173 526.525L587.39923 526.525ZM587.39923 533.9L587.39923 527.6813L588.46173 527.6813L588.46173 533.9L587.39923 533.9ZM589.6961 533.9L591.96173 530.66565L589.868 527.6813L591.1805 527.6813L592.1336 529.1344Q592.39923 529.5563 592.5711 529.8375Q592.8211 529.4469 593.03986 529.15L594.08673 527.6813L595.35236 527.6813L593.1961 530.60315L595.5086 533.9L594.22736 533.9L592.9461 531.9625L592.60236 531.4469L590.96173 533.9L589.6961 533.9ZM595.1805 529.7125Q595.1805 527.5719 596.3211 526.3688Q597.47736 525.15 599.28986 525.15Q600.493 525.15 601.4461 525.72815Q602.39923 526.29065 602.89923 527.3063Q603.39923 528.3219 603.39923 529.6188Q603.39923 530.91565 602.868 531.9469Q602.33673 532.97815 601.368 533.5094Q600.41486 534.04065 599.28986 534.04065Q598.0711 534.04065 597.118 533.4625Q596.16486 532.8688 595.66486 531.8688Q595.1805 530.85315 595.1805 529.7125ZM596.35236 529.72815Q596.35236 531.29065 597.1805 532.1813Q598.02423 533.0719 599.28986 533.0719Q600.5711 533.0719 601.39923 532.1813Q602.22736 531.275 602.22736 529.60315Q602.22736 528.5563 601.868 527.775Q601.52423 526.9938 600.83673 526.5719Q600.14923 526.1344 599.3055 526.1344Q598.10236 526.1344 597.22736 526.9625Q596.35236 527.79065 596.35236 529.72815ZM604.14923 531.1344L605.21173 531.04065Q605.28986 531.6969 605.5711 532.10315Q605.85236 532.5094 606.4305 532.775Q607.02423 533.025 607.7586 533.025Q608.39923 533.025 608.89923 532.8375Q609.39923 532.6344 609.6336 532.3063Q609.8836 531.9625 609.8836 531.5719Q609.8836 531.16565 609.64923 530.8688Q609.41486 530.5563 608.8836 530.35315Q608.52423 530.2125 607.33673 529.9313Q606.16486 529.65 605.6961 529.4Q605.0711 529.0719 604.77423 528.60315Q604.47736 528.1188 604.47736 527.525Q604.47736 526.8844 604.83673 526.3219Q605.21173 525.7438 605.91486 525.4625Q606.6336 525.16565 607.493 525.16565Q608.4461 525.16565 609.1805 525.47815Q609.91486 525.775 610.3055 526.3844Q610.6961 526.97815 610.72736 527.72815L609.6336 527.8063Q609.53986 526.9938 609.02423 526.5875Q608.52423 526.16565 607.53986 526.16565Q606.5086 526.16565 606.03986 526.54065Q605.5711 526.91565 605.5711 527.4469Q605.5711 527.91565 605.89923 528.2125Q606.22736 528.5094 607.60236 528.8219Q608.993 529.1344 609.5086 529.3688Q610.2586 529.72815 610.618 530.2594Q610.97736 530.775 610.97736 531.47815Q610.97736 532.16565 610.58673 532.775Q610.1961 533.3688 609.46173 533.7125Q608.72736 534.04065 607.8055 534.04065Q606.6336 534.04065 605.83673 533.7125Q605.0555 533.3688 604.60236 532.6813Q604.16486 531.9938 604.14923 531.1344ZM620.64923 532.8844L620.64923 533.9L614.96173 533.9Q614.96173 533.525 615.08673 533.16565Q615.3055 532.5875 615.77423 532.025Q616.2586 531.4625 617.16486 530.72815Q618.5711 529.5719 619.0555 528.9Q619.5555 528.22815 619.5555 527.6344Q619.5555 527.0094 619.10236 526.5875Q618.64923 526.15 617.9305 526.15Q617.16486 526.15 616.71173 526.60315Q616.2586 527.0563 616.243 527.8688L615.16486 527.7594Q615.27423 526.54065 615.993 525.91565Q616.72736 525.275 617.96173 525.275Q619.1961 525.275 619.91486 525.9625Q620.6336 526.65 620.6336 527.66565Q620.6336 528.1813 620.41486 528.6813Q620.21173 529.16565 619.71173 529.72815Q619.22736 530.275 618.10236 531.22815Q617.14923 532.025 616.868 532.3219Q616.60236 532.60315 616.4305 532.8844L620.64923 532.8844ZM622.10236 531.6344L623.16486 531.4938Q623.33673 532.3844 623.77423 532.79065Q624.21173 533.1813 624.83673 533.1813Q625.58673 533.1813 626.10236 532.66565Q626.618 532.15 626.618 531.3844Q626.618 530.66565 626.1336 530.1969Q625.66486 529.7125 624.9305 529.7125Q624.6336 529.7125 624.1805 529.8375L624.3055 528.9Q624.41486 528.91565 624.47736 528.91565Q625.14923 528.91565 625.6805 528.5719Q626.22736 528.2125 626.22736 527.47815Q626.22736 526.9 625.83673 526.525Q625.4461 526.1344 624.8211 526.1344Q624.21173 526.1344 623.78986 526.525Q623.3836 526.91565 623.27423 527.6813L622.21173 527.4938Q622.39923 526.4469 623.08673 525.8688Q623.77423 525.275 624.78986 525.275Q625.493 525.275 626.08673 525.5875Q626.6805 525.8844 626.993 526.4Q627.3055 526.91565 627.3055 527.5094Q627.3055 528.0563 627.0086 528.525Q626.71173 528.97815 626.1336 529.2438Q626.8836 529.41565 627.3055 529.97815Q627.72736 530.525 627.72736 531.3688Q627.72736 532.4938 626.89923 533.275Q626.08673 534.0563 624.83673 534.0563Q623.71173 534.0563 622.96173 533.3844Q622.21173 532.6969 622.10236 531.6344ZM629.6961 533.9L629.6961 532.6969L630.89923 532.6969L630.89923 533.9L629.6961 533.9ZM632.10236 529.66565Q632.10236 528.1344 632.41486 527.2125Q632.72736 526.275 633.33673 525.775Q633.96173 525.275 634.89923 525.275Q635.58673 525.275 636.10236 525.5563Q636.6336 525.8375 636.97736 526.3688Q637.3211 526.8844 637.5086 527.6344Q637.6961 528.3844 637.6961 529.66565Q637.6961 531.1813 637.3836 532.10315Q637.08673 533.025 636.46173 533.54065Q635.85236 534.04065 634.89923 534.04065Q633.66486 534.04065 632.9461 533.15Q632.10236 532.0875 632.10236 529.66565ZM633.1805 529.66565Q633.1805 531.775 633.6805 532.47815Q634.1805 533.1813 634.89923 533.1813Q635.6336 533.1813 636.118 532.47815Q636.618 531.775 636.618 529.66565Q636.618 527.54065 636.118 526.85315Q635.6336 526.15 634.8836 526.15Q634.16486 526.15 633.72736 526.7594Q633.1805 527.54065 633.1805 529.66565ZM639.10236 531.65L640.21173 531.5563Q640.33673 532.3688 640.77423 532.775Q641.22736 533.1813 641.868 533.1813Q642.618 533.1813 643.14923 532.60315Q643.6805 532.025 643.6805 531.0875Q643.6805 530.1813 643.16486 529.66565Q642.66486 529.1344 641.83673 529.1344Q641.33673 529.1344 640.91486 529.3688Q640.5086 529.60315 640.27423 529.9625L639.28986 529.8375L640.118 525.4313L644.39923 525.4313L644.39923 526.4313L640.96173 526.4313L640.5086 528.7438Q641.27423 528.1969 642.118 528.1969Q643.243 528.1969 644.0086 528.97815Q644.78986 529.7594 644.78986 530.9938Q644.78986 532.15 644.118 533.0094Q643.28986 534.04065 641.868 534.04065Q640.6961 534.04065 639.9461 533.3844Q639.21173 532.72815 639.10236 531.65Z" fill-rule="nonzero"/><path fill="#000000" d="M693.92584 533.9L693.92584 525.3063L695.0821 525.3063L699.5977 532.0563L699.5977 525.3063L700.69147 525.3063L700.69147 533.9L699.5196 533.9L695.00397 527.15L695.00397 533.9L693.92584 533.9ZM702.80084 526.525L702.80084 525.3063L703.86334 525.3063L703.86334 526.525L702.80084 526.525ZM702.80084 533.9L702.80084 527.6813L703.86334 527.6813L703.86334 533.9L702.80084 533.9ZM705.0977 533.9L707.36334 530.66565L705.2696 527.6813L706.5821 527.6813L707.5352 529.1344Q707.80084 529.5563 707.9727 529.8375Q708.2227 529.4469 708.44147 529.15L709.48834 527.6813L710.75397 527.6813L708.5977 530.60315L710.9102 533.9L709.62897 533.9L708.3477 531.9625L708.00397 531.4469L706.36334 533.9L705.0977 533.9ZM710.5821 529.7125Q710.5821 527.5719 711.7227 526.3688Q712.87897 525.15 714.69147 525.15Q715.8946 525.15 716.8477 525.72815Q717.80084 526.29065 718.30084 527.3063Q718.80084 528.3219 718.80084 529.6188Q718.80084 530.91565 718.2696 531.9469Q717.73834 532.97815 716.7696 533.5094Q715.81647 534.04065 714.69147 534.04065Q713.4727 534.04065 712.5196 533.4625Q711.56647 532.8688 711.06647 531.8688Q710.5821 530.85315 710.5821 529.7125ZM711.75397 529.72815Q711.75397 531.29065 712.5821 532.1813Q713.42584 533.0719 714.69147 533.0719Q715.9727 533.0719 716.80084 532.1813Q717.62897 531.275 717.62897 529.60315Q717.62897 528.5563 717.2696 527.775Q716.92584 526.9938 716.23834 526.5719Q715.55084 526.1344 714.7071 526.1344Q713.50397 526.1344 712.62897 526.9625Q711.75397 527.79065 711.75397 529.72815ZM719.55084 531.1344L720.61334 531.04065Q720.69147 531.6969 720.9727 532.10315Q721.25397 532.5094 721.8321 532.775Q722.42584 533.025 723.1602 533.025Q723.80084 533.025 724.30084 532.8375Q724.80084 532.6344 725.0352 532.3063Q725.2852 531.9625 725.2852 531.5719Q725.2852 531.16565 725.05084 530.8688Q724.81647 530.5563 724.2852 530.35315Q723.92584 530.2125 722.73834 529.9313Q721.56647 529.65 721.0977 529.4Q720.4727 529.0719 720.17584 528.60315Q719.87897 528.1188 719.87897 527.525Q719.87897 526.8844 720.23834 526.3219Q720.61334 525.7438 721.31647 525.4625Q722.0352 525.16565 722.8946 525.16565Q723.8477 525.16565 724.5821 525.47815Q725.31647 525.775 725.7071 526.3844Q726.0977 526.97815 726.12897 527.72815L725.0352 527.8063Q724.94147 526.9938 724.42584 526.5875Q723.92584 526.16565 722.94147 526.16565Q721.9102 526.16565 721.44147 526.54065Q720.9727 526.91565 720.9727 527.4469Q720.9727 527.91565 721.30084 528.2125Q721.62897 528.5094 723.00397 528.8219Q724.3946 529.1344 724.9102 529.3688Q725.6602 529.72815 726.0196 530.2594Q726.37897 530.775 726.37897 531.47815Q726.37897 532.16565 725.98834 532.775Q725.5977 533.3688 724.86334 533.7125Q724.12897 534.04065 723.2071 534.04065Q722.0352 534.04065 721.23834 533.7125Q720.4571 533.3688 720.00397 532.6813Q719.56647 531.9938 719.55084 531.1344ZM736.05084 532.8844L736.05084 533.9L730.36334 533.9Q730.36334 533.525 730.48834 533.16565Q730.7071 532.5875 731.17584 532.025Q731.6602 531.4625 732.56647 530.72815Q733.9727 529.5719 734.4571 528.9Q734.9571 528.22815 734.9571 527.6344Q734.9571 527.0094 734.50397 526.5875Q734.05084 526.15 733.3321 526.15Q732.56647 526.15 732.11334 526.60315Q731.6602 527.0563 731.6446 527.8688L730.56647 527.7594Q730.67584 526.54065 731.3946 525.91565Q732.12897 525.275 733.36334 525.275Q734.5977 525.275 735.31647 525.9625Q736.0352 526.65 736.0352 527.66565Q736.0352 528.1813 735.81647 528.6813Q735.61334 529.16565 735.11334 529.72815Q734.62897 530.275 733.50397 531.22815Q732.55084 532.025 732.2696 532.3219Q732.00397 532.60315 731.8321 532.8844L736.05084 532.8844ZM737.50397 531.6344L738.56647 531.4938Q738.73834 532.3844 739.17584 532.79065Q739.61334 533.1813 740.23834 533.1813Q740.98834 533.1813 741.50397 532.66565Q742.0196 532.15 742.0196 531.3844Q742.0196 530.66565 741.5352 530.1969Q741.06647 529.7125 740.3321 529.7125Q740.0352 529.7125 739.5821 529.8375L739.7071 528.9Q739.81647 528.91565 739.87897 528.91565Q740.55084 528.91565 741.0821 528.5719Q741.62897 528.2125 741.62897 527.47815Q741.62897 526.9 741.23834 526.525Q740.8477 526.1344 740.2227 526.1344Q739.61334 526.1344 739.19147 526.525Q738.7852 526.91565 738.67584 527.6813L737.61334 527.4938Q737.80084 526.4469 738.48834 525.8688Q739.17584 525.275 740.19147 525.275Q740.8946 525.275 741.48834 525.5875Q742.0821 525.8844 742.3946 526.4Q742.7071 526.91565 742.7071 527.5094Q742.7071 528.0563 742.4102 528.525Q742.11334 528.97815 741.5352 529.2438Q742.2852 529.41565 742.7071 529.97815Q743.12897 530.525 743.12897 531.3688Q743.12897 532.4938 742.30084 533.275Q741.48834 534.0563 740.23834 534.0563Q739.11334 534.0563 738.36334 533.3844Q737.61334 532.6969 737.50397 531.6344ZM745.0977 533.9L745.0977 532.6969L746.30084 532.6969L746.30084 533.9L745.0977 533.9ZM751.4727 533.9L750.42584 533.9L750.42584 527.1813Q750.0352 527.54065 749.4102 527.91565Q748.80084 528.275 748.31647 528.4469L748.31647 527.4313Q749.19147 527.0094 749.8477 526.4313Q750.5196 525.8375 750.80084 525.275L751.4727 525.275L751.4727 533.9ZM758.4727 533.9L757.42584 533.9L757.42584 527.1813Q757.0352 527.54065 756.4102 527.91565Q755.80084 528.275 755.31647 528.4469L755.31647 527.4313Q756.19147 527.0094 756.8477 526.4313Q757.5196 525.8375 757.80084 525.275L758.4727 525.275L758.4727 533.9Z" fill-rule="nonzero"/><path fill="#4285f4" d="M322.0 38.1C322.0 37.547714 322.44772 37.1 323.0 37.1L333.0 37.1C333.55228 37.1 334.0 37.547714 334.0 38.1L334.0 48.1C334.0 48.652287 333.55228 49.1 333.0 49.1L323.0 49.1C322.44772 49.1 322.0 48.652287 322.0 48.1Z" fill-rule="nonzero"/><path fill="#1a1a1a" d="M353.76562 45.084373L355.65625 45.553123Q355.0625 47.896873 353.51562 49.13125Q351.96875 50.35 349.71875 50.35Q347.40625 50.35 345.95312 49.4125Q344.51562 48.459373 343.75 46.678123Q343.0 44.88125 343.0 42.834373Q343.0 40.6 343.84375 38.94375Q344.70312 37.271873 346.28125 36.4125Q347.85938 35.5375 349.75 35.5375Q351.90625 35.5375 353.35938 36.63125Q354.82812 37.725 355.40625 39.709373L353.54688 40.146873Q353.04688 38.584373 352.09375 37.88125Q351.15625 37.1625 349.71875 37.1625Q348.0625 37.1625 346.95312 37.959373Q345.84375 38.740623 345.39062 40.084373Q344.95312 41.4125 344.95312 42.81875Q344.95312 44.646873 345.48438 46.021873Q346.01562 47.38125 347.14062 48.053123Q348.26562 48.725 349.5625 48.725Q351.15625 48.725 352.26562 47.803123Q353.375 46.88125 353.76562 45.084373ZM356.67188 44.9125Q356.67188 42.0375 358.26562 40.646873Q359.60938 39.490623 361.53125 39.490623Q363.67188 39.490623 365.01562 40.896873Q366.375 42.303123 366.375 44.771873Q366.375 46.771873 365.78125 47.928123Q365.1875 49.06875 364.03125 49.709373Q362.89062 50.334373 361.53125 50.334373Q359.34375 50.334373 358.0 48.94375Q356.67188 47.5375 356.67188 44.9125ZM358.46875 44.9125Q358.46875 46.9125 359.32812 47.896873Q360.20312 48.88125 361.53125 48.88125Q362.84375 48.88125 363.70312 47.896873Q364.57812 46.896873 364.57812 44.85Q364.57812 42.928123 363.70312 41.94375Q362.82812 40.94375 361.53125 40.94375Q360.20312 40.94375 359.32812 41.94375Q358.46875 42.928123 358.46875 44.9125ZM368.3125 50.1L368.3125 39.725L369.90625 39.725L369.90625 41.209373Q371.04688 39.490623 373.20312 39.490623Q374.14062 39.490623 374.92188 39.834373Q375.71875 40.1625 376.10938 40.709373Q376.5 41.25625 376.65625 42.00625Q376.75 42.50625 376.75 43.725L376.75 50.1L374.98438 50.1L374.98438 43.7875Q374.98438 42.709373 374.78125 42.178123Q374.57812 41.646873 374.04688 41.334373Q373.53125 41.021873 372.82812 41.021873Q371.70312 41.021873 370.89062 41.740623Q370.07812 42.44375 370.07812 44.428123L370.07812 50.1L368.3125 50.1ZM382.15625 48.521873L382.40625 50.084373Q381.67188 50.240623 381.07812 50.240623Q380.125 50.240623 379.59375 49.94375Q379.07812 49.63125 378.85938 49.146873Q378.64062 48.646873 378.64062 47.06875L378.64062 41.1L377.35938 41.1L377.35938 39.725L378.64062 39.725L378.64062 37.1625L380.39062 36.1L380.39062 39.725L382.15625 39.725L382.15625 41.1L380.39062 41.1L380.39062 47.1625Q380.39062 47.9125 380.48438 48.13125Q380.57812 48.334373 380.78125 48.475Q381.0 48.6 381.39062 48.6Q381.67188 48.6 382.15625 48.521873ZM384.29688 50.1L384.29688 39.725L385.875 39.725L385.875 41.303123Q386.48438 40.19375 387.0 39.85Q387.51562 39.490623 388.125 39.490623Q389.01562 39.490623 389.9375 40.053123L389.32812 41.69375Q388.6875 41.303123 388.04688 41.303123Q387.46875 41.303123 387.0 41.6625Q386.54688 42.00625 386.34375 42.615623Q386.0625 43.553123 386.0625 44.6625L386.0625 50.1L384.29688 50.1ZM391.32812 37.803123L391.32812 35.7875L393.09375 35.7875L393.09375 37.803123L391.32812 37.803123ZM391.32812 50.1L391.32812 39.725L393.09375 39.725L393.09375 50.1L391.32812 50.1ZM396.9375 50.1L395.3125 50.1L395.3125 35.7875L397.0625 35.7875L397.0625 40.896873Q398.1875 39.490623 399.90625 39.490623Q400.85938 39.490623 401.71875 39.88125Q402.57812 40.271873 403.125 40.975Q403.67188 41.6625 403.98438 42.646873Q404.29688 43.63125 404.29688 44.75625Q404.29688 47.428123 402.98438 48.88125Q401.67188 50.334373 399.82812 50.334373Q397.98438 50.334373 396.9375 48.803123L396.9375 50.1ZM396.92188 44.834373Q396.92188 46.69375 397.42188 47.5375Q398.26562 48.88125 399.67188 48.88125Q400.82812 48.88125 401.65625 47.88125Q402.5 46.88125 402.5 44.896873Q402.5 42.865623 401.6875 41.9125Q400.89062 40.94375 399.75 40.94375Q398.59375 40.94375 397.75 41.94375Q396.92188 42.94375 396.92188 44.834373ZM413.10938 50.1L413.10938 48.56875Q411.90625 50.334373 409.82812 50.334373Q408.90625 50.334373 408.10938 49.990623Q407.3125 49.63125 406.92188 49.1Q406.54688 48.56875 406.39062 47.7875Q406.28125 47.271873 406.28125 46.146873L406.28125 39.725L408.03125 39.725L408.03125 45.475Q408.03125 46.85 408.14062 47.334373Q408.3125 48.021873 408.84375 48.428123Q409.39062 48.81875 410.17188 48.81875Q410.96875 48.81875 411.65625 48.4125Q412.35938 48.00625 412.64062 47.31875Q412.9375 46.615623 412.9375 45.2875L412.9375 39.725L414.6875 39.725L414.6875 50.1L413.10938 50.1ZM420.15625 48.521873L420.40625 50.084373Q419.67188 50.240623 419.07812 50.240623Q418.125 50.240623 417.59375 49.94375Q417.07812 49.63125 416.85938 49.146873Q416.64062 48.646873 416.64062 47.06875L416.64062 41.1L415.35938 41.1L415.35938 39.725L416.64062 39.725L416.64062 37.1625L418.39062 36.1L418.39062 39.725L420.15625 39.725L420.15625 41.1L418.39062 41.1L418.39062 47.1625Q418.39062 47.9125 418.48438 48.13125Q418.57812 48.334373 418.78125 48.475Q419.0 48.6 419.39062 48.6Q419.67188 48.6 420.15625 48.521873ZM421.67188 44.9125Q421.67188 42.0375 423.26562 40.646873Q424.60938 39.490623 426.53125 39.490623Q428.67188 39.490623 430.01562 40.896873Q431.375 42.303123 431.375 44.771873Q431.375 46.771873 430.78125 47.928123Q430.1875 49.06875 429.03125 49.709373Q427.89062 50.334373 426.53125 50.334373Q424.34375 50.334373 423.0 48.94375Q421.67188 47.5375 421.67188 44.9125ZM423.46875 44.9125Q423.46875 46.9125 424.32812 47.896873Q425.20312 48.88125 426.53125 48.88125Q427.84375 48.88125 428.70312 47.896873Q429.57812 46.896873 429.57812 44.85Q429.57812 42.928123 428.70312 41.94375Q427.82812 40.94375 426.53125 40.94375Q425.20312 40.94375 424.32812 41.94375Q423.46875 42.928123 423.46875 44.9125ZM433.29688 50.1L433.29688 39.725L434.875 39.725L434.875 41.303123Q435.48438 40.19375 436.0 39.85Q436.51562 39.490623 437.125 39.490623Q438.01562 39.490623 438.9375 40.053123L438.32812 41.69375Q437.6875 41.303123 437.04688 41.303123Q436.46875 41.303123 436.0 41.6625Q435.54688 42.00625 435.34375 42.615623Q435.0625 43.553123 435.0625 44.6625L435.0625 50.1L433.29688 50.1ZM439.60938 47.00625L441.35938 46.725Q441.5 47.771873 442.17188 48.334373Q442.84375 48.88125 444.04688 48.88125Q445.25 48.88125 445.82812 48.396873Q446.42188 47.896873 446.42188 47.240623Q446.42188 46.646873 445.90625 46.303123Q445.54688 46.06875 444.10938 45.709373Q442.17188 45.209373 441.42188 44.865623Q440.6875 44.50625 440.29688 43.88125Q439.90625 43.240623 439.90625 42.475Q439.90625 41.7875 440.21875 41.19375Q440.54688 40.6 441.09375 40.209373Q441.5 39.9125 442.20312 39.709373Q442.92188 39.490623 443.73438 39.490623Q444.95312 39.490623 445.875 39.85Q446.79688 40.19375 447.23438 40.803123Q447.67188 41.396873 447.84375 42.396873L446.125 42.63125Q446.0 41.834373 445.4375 41.396873Q444.875 40.94375 443.85938 40.94375Q442.64062 40.94375 442.125 41.35Q441.60938 41.740623 441.60938 42.271873Q441.60938 42.615623 441.82812 42.896873Q442.03125 43.178123 442.5 43.365623Q442.76562 43.459373 444.04688 43.803123Q445.92188 44.303123 446.65625 44.63125Q447.39062 44.94375 447.8125 45.553123Q448.23438 46.146873 448.23438 47.053123Q448.23438 47.928123 447.71875 48.709373Q447.20312 49.490623 446.23438 49.9125Q445.26562 50.334373 444.04688 50.334373Q442.03125 50.334373 440.96875 49.490623Q439.90625 48.646873 439.60938 47.00625Z" fill-rule="nonzero"/><path fill="#ea4335" d="M465.0 38.1C465.0 37.547714 465.44772 37.1 466.0 37.1L476.0 37.1C476.55228 37.1 477.0 37.547714 477.0 38.1L477.0 48.1C477.0 48.652287 476.55228 49.1 476.0 49.1L466.0 49.1C465.44772 49.1 465.0 48.652287 465.0 48.1Z" fill-rule="nonzero"/><path fill="#1a1a1a" d="M496.76562 45.084373L498.65625 45.553123Q498.0625 47.896873 496.51562 49.13125Q494.96875 50.35 492.71875 50.35Q490.40625 50.35 488.95312 49.4125Q487.51562 48.459373 486.75 46.678123Q486.0 44.88125 486.0 42.834373Q486.0 40.6 486.84375 38.94375Q487.70312 37.271873 489.28125 36.4125Q490.85938 35.5375 492.75 35.5375Q494.90625 35.5375 496.35938 36.63125Q497.82812 37.725 498.40625 39.709373L496.54688 40.146873Q496.04688 38.584373 495.09375 37.88125Q494.15625 37.1625 492.71875 37.1625Q491.0625 37.1625 489.95312 37.959373Q488.84375 38.740623 488.39062 40.084373Q487.95312 41.4125 487.95312 42.81875Q487.95312 44.646873 488.48438 46.021873Q489.01562 47.38125 490.14062 48.053123Q491.26562 48.725 492.5625 48.725Q494.15625 48.725 495.26562 47.803123Q496.375 46.88125 496.76562 45.084373ZM499.67188 44.9125Q499.67188 42.0375 501.26562 40.646873Q502.60938 39.490623 504.53125 39.490623Q506.67188 39.490623 508.01562 40.896873Q509.375 42.303123 509.375 44.771873Q509.375 46.771873 508.78125 47.928123Q508.1875 49.06875 507.03125 49.709373Q505.89062 50.334373 504.53125 50.334373Q502.34375 50.334373 501.0 48.94375Q499.67188 47.5375 499.67188 44.9125ZM501.46875 44.9125Q501.46875 46.9125 502.32812 47.896873Q503.20312 48.88125 504.53125 48.88125Q505.84375 48.88125 506.70312 47.896873Q507.57812 46.896873 507.57812 44.85Q507.57812 42.928123 506.70312 41.94375Q505.82812 40.94375 504.53125 40.94375Q503.20312 40.94375 502.32812 41.94375Q501.46875 42.928123 501.46875 44.9125ZM511.3125 50.1L511.3125 39.725L512.8906 39.725L512.8906 41.178123Q513.375 40.428123 514.1875 39.959373Q515.0 39.490623 516.03125 39.490623Q517.1875 39.490623 517.9219 39.975Q518.65625 40.44375 518.96875 41.303123Q520.2031 39.490623 522.1719 39.490623Q523.71875 39.490623 524.5469 40.35Q525.375 41.209373 525.375 42.975L525.375 50.1L523.625 50.1L523.625 43.56875Q523.625 42.50625 523.4531 42.053123Q523.28125 41.584373 522.8281 41.303123Q522.3906 41.021873 521.78125 41.021873Q520.6875 41.021873 519.9531 41.75625Q519.2344 42.475 519.2344 44.06875L519.2344 50.1L517.4844 50.1L517.4844 43.365623Q517.4844 42.19375 517.0469 41.615623Q516.625 41.021873 515.6406 41.021873Q514.90625 41.021873 514.2656 41.4125Q513.6406 41.803123 513.3594 42.553123Q513.0781 43.303123 513.0781 44.725L513.0781 50.1L511.3125 50.1ZM527.3125 50.1L527.3125 39.725L528.8906 39.725L528.8906 41.178123Q529.375 40.428123 530.1875 39.959373Q531.0 39.490623 532.03125 39.490623Q533.1875 39.490623 533.9219 39.975Q534.65625 40.44375 534.96875 41.303123Q536.2031 39.490623 538.1719 39.490623Q539.71875 39.490623 540.5469 40.35Q541.375 41.209373 541.375 42.975L541.375 50.1L539.625 50.1L539.625 43.56875Q539.625 42.50625 539.4531 42.053123Q539.28125 41.584373 538.8281 41.303123Q538.3906 41.021873 537.78125 41.021873Q536.6875 41.021873 535.9531 41.75625Q535.2344 42.475 535.2344 44.06875L535.2344 50.1L533.4844 50.1L533.4844 43.365623Q533.4844 42.19375 533.0469 41.615623Q532.625 41.021873 531.6406 41.021873Q530.90625 41.021873 530.2656 41.4125Q529.6406 41.803123 529.3594 42.553123Q529.0781 43.303123 529.0781 44.725L529.0781 50.1L527.3125 50.1ZM543.3281 37.803123L543.3281 35.7875L545.09375 35.7875L545.09375 37.803123L543.3281 37.803123ZM543.3281 50.1L543.3281 39.725L545.09375 39.725L545.09375 50.1L543.3281 50.1ZM551.15625 48.521873L551.40625 50.084373Q550.6719 50.240623 550.0781 50.240623Q549.125 50.240623 548.59375 49.94375Q548.0781 49.63125 547.8594 49.146873Q547.6406 48.646873 547.6406 47.06875L547.6406 41.1L546.3594 41.1L546.3594 39.725L547.6406 39.725L547.6406 37.1625L549.3906 36.1L549.3906 39.725L551.15625 39.725L551.15625 41.1L549.3906 41.1L549.3906 47.1625Q549.3906 47.9125 549.4844 48.13125Q549.5781 48.334373 549.78125 48.475Q550.0 48.6 550.3906 48.6Q550.6719 48.6 551.15625 48.521873ZM552.6094 47.00625L554.3594 46.725Q554.5 47.771873 555.1719 48.334373Q555.84375 48.88125 557.0469 48.88125Q558.25 48.88125 558.8281 48.396873Q559.4219 47.896873 559.4219 47.240623Q559.4219 46.646873 558.90625 46.303123Q558.5469 46.06875 557.1094 45.709373Q555.1719 45.209373 554.4219 44.865623Q553.6875 44.50625 553.2969 43.88125Q552.90625 43.240623 552.90625 42.475Q552.90625 41.7875 553.21875 41.19375Q553.5469 40.6 554.09375 40.209373Q554.5 39.9125 555.2031 39.709373Q555.9219 39.490623 556.7344 39.490623Q557.9531 39.490623 558.875 39.85Q559.7969 40.19375 560.2344 40.803123Q560.6719 41.396873 560.84375 42.396873L559.125 42.63125Q559.0 41.834373 558.4375 41.396873Q557.875 40.94375 556.8594 40.94375Q555.6406 40.94375 555.125 41.35Q554.6094 41.740623 554.6094 42.271873Q554.6094 42.615623 554.8281 42.896873Q555.03125 43.178123 555.5 43.365623Q555.7656 43.459373 557.0469 43.803123Q558.9219 44.303123 559.65625 44.63125Q560.3906 44.94375 560.8125 45.553123Q561.2344 46.146873 561.2344 47.053123Q561.2344 47.928123 560.71875 48.709373Q560.2031 49.490623 559.2344 49.9125Q558.2656 50.334373 557.0469 50.334373Q555.03125 50.334373 553.96875 49.490623Q552.90625 48.646873 552.6094 47.00625Z" fill-rule="nonzero"/></svg>